<svg xmlns="http://www.w3.org/2000/svg" xmlns:xlink="http://www.w3.org/1999/xlink" width="2500" height="1300" viewBox="0 0 2500 1300">
    <defs>
    <path d="M1996.433 879.212c4.277 0 7.749 3.472 7.749 7.749 0 4.277-3.472 7.749-7.749 7.749h-206.789c-4.277 0-7.749-3.472-7.749-7.749 0-4.277 3.472-7.749 7.749-7.749z" id="a"/></defs>
    <use xmlns:xlink="http://www.w3.org/1999/xlink" xlink:href="#a" fill="#307abe"/>
    <defs><path d="M48.537 894.711h-41.769l-.319-.006-.316-.019-.312-.032-.309-.044-.305-.056-.3-.068-.296-.079-.291-.091-.286-.102-.281-.112-.275-.123-.27-.133-.264-.143-.257-.153-.251-.163-.244-.172-.237-.181-.23-.19-.222-.198-.214-.206-.206-.214-.198-.222-.19-.23-.181-.237-.172-.244-.163-.251-.153-.257-.143-.264-.133-.27-.123-.275-.112-.281-.102-.286-.091-.291-.079-.296-.068-.3-.056-.305-.044-.309-.032-.312-.019-.316-.006-.319.006-.319.019-.316.032-.312.044-.309.056-.305.068-.3.079-.296.091-.291.102-.286.112-.281.123-.275.133-.27.143-.264.153-.257.163-.251.172-.244.181-.237.19-.23.198-.222.206-.214.214-.206.222-.198.23-.19.237-.181.244-.172.251-.163.257-.153.264-.143.27-.133.275-.123.281-.112.286-.102.291-.091.296-.079.3-.068.305-.056.309-.044.312-.032.316-.019.319-.006h41.309l.46 15.499zm165.34-15.493l.316.019.312.032.309.044.305.056.3.068.296.079.291.091.286.102.281.112.275.123.27.133.264.143.257.153.251.163.244.172.237.181.23.19.222.198.214.206.206.214.198.222.19.23.181.237.172.244.163.251.153.257.143.264.133.27.123.275.112.281.102.286.091.291.079.296.068.3.056.305.044.309.032.312.019.316.006.319-.006.319-.019.316-.032.312-.044.309-.056.305-.068.3-.079.296-.091.291-.102.286-.112.281-.123.275-.133.27-.143.264-.153.257-.163.251-.172.244-.181.237-.19.23-.198.222-.206.214-.214.206-.222.198-.23.19-.237.181-.244.172-.251.163-.257.153-.264.143-.27.133-.275.123-.281.112-.286.102-.291.091-.296.079-.3.068-.305.056-.309.044-.312.032-.316.019-.319.006h-26.779l-58.218-15.499h84.997l.319.006z" id="b"/></defs><use xmlns:xlink="http://www.w3.org/1999/xlink" xlink:href="#b" fill="#307abe"/><defs><path d="M593.368 901.374c32.118 3.563 32.156 3.551 3.081 17.531l-169.262 91.913c-31.388 15.068-31.363 15.056-64.906 7.581l-288.779-74.625c-27.155-6.075-27.156-6.076-.956-15.306l156.73-45.415c25.033-8.997 24.983-8.997 51.076-16.216z" id="c"/></defs><use xmlns:xlink="http://www.w3.org/1999/xlink" xlink:href="#c" fill="#f1f7fc"/><use xmlns:xlink="http://www.w3.org/1999/xlink" xlink:href="#c" stroke="#307abe" stroke-width="5" fill="none"/><defs><path d="M63.679 863.669l1.971 66.401 333.83 82.646 194.217-103.042-12.788-88.304-185.055 124.727-313.463-83.452" id="d"/></defs><use xmlns:xlink="http://www.w3.org/1999/xlink" xlink:href="#d" fill="#fff"/><use xmlns:xlink="http://www.w3.org/1999/xlink" xlink:href="#d" stroke="#307abe" stroke-width="4" fill="none"/><defs><path d="M593.368 830.28c32.118 3.563 32.156 3.551 3.081 17.531l-166.262 86.756c-31.388 15.068-31.363 15.056-64.906 7.581l-291.779-69.469c-27.155-6.075-27.156-6.076-.956-15.306l156.73-55.572c25.033-8.997 24.983-8.997 51.076-6.06z" id="e"/></defs><use xmlns:xlink="http://www.w3.org/1999/xlink" xlink:href="#e" fill="#f1f7fc"/><use xmlns:xlink="http://www.w3.org/1999/xlink" xlink:href="#e" stroke="#307abe" stroke-width="5" fill="none"/><defs><path d="M65.786 888.684l.092.005.092.008.093.012.093.016.093.02 159.143 37.554.092.024.09.027.088.031.086.034.084.037.082.04.08.043.078.046.076.049.074.052.071.054.069.057.066.059.064.062.061.064.059.066.056.068.054.071.051.072.048.074.045.076.042.078.039.079.036.081.033.082.03.084.027.085.023.086.02.087.017.088.013.089.01.09.006.09.003.091-.001.092-.005.092-.008.092-.012.093-.016.093-.02.093-.024.092-.027.09-.031.088-.034.086-.037.084-.04.082-.043.08-.046.078-.049.076-.052.074-.054.071-.057.069-.059.066-.062.064-.064.061-.066.059-.068.056-.071.054-.072.051-.074.048-.076.045-.078.042-.079.039-.081.036-.082.033-.084.03-.085.027-.086.023-.087.02-.088.017-.089.013-.09.01-.09.006-.091.003-.092-.001-.092-.005-.092-.008-.093-.012-.093-.016-.093-.02-159.143-37.554-.092-.024-.09-.027-.088-.031-.086-.034-.084-.037-.082-.04-.08-.043-.078-.046-.076-.049-.074-.052-.071-.054-.069-.057-.066-.059-.064-.062-.061-.064-.059-.066-.056-.068-.054-.071-.051-.072-.048-.074-.045-.076-.042-.078-.039-.079-.036-.081-.033-.082-.03-.084-.027-.085-.023-.086-.02-.087-.017-.088-.013-.089-.01-.09-.006-.09-.003-.091.001-.092.005-.092.008-.092.012-.093.016-.093.02-.093.024-.092.027-.09.031-.088.034-.086.037-.084.04-.082.043-.08.046-.078.049-.076.052-.074.054-.071.057-.069.059-.066.062-.064.064-.061.066-.059.068-.056.071-.054.072-.051.074-.048.076-.045.078-.042.079-.039.081-.036.082-.033.084-.03.085-.027.086-.023.087-.02.088-.017.089-.013.09-.01.09-.006.091-.003.092.001z" id="f"/></defs><use xmlns:xlink="http://www.w3.org/1999/xlink" xlink:href="#f" fill="#307abe"/><defs><path d="M236.868 929.055l.092.005.092.008.093.012.093.016.093.02 16.575 3.911.092.024.09.027.088.031.086.034.084.037.082.04.08.043.078.046.076.049.074.052.071.054.069.057.066.059.064.062.061.064.059.066.056.068.054.071.051.072.048.074.045.076.042.078.039.079.036.081.033.082.03.084.027.085.023.086.02.087.017.088.013.089.01.09.006.09.003.091-.001.092-.005.092-.008.092-.012.093-.016.093-.02.093-.024.092-.027.09-.031.088-.034.086-.037.084-.04.082-.043.08-.046.078-.049.076-.052.074-.054.071-.057.069-.059.066-.062.064-.064.061-.066.059-.068.056-.071.054-.072.051-.074.048-.076.045-.078.042-.079.039-.081.036-.082.033-.084.03-.085.027-.086.023-.087.02-.088.017-.089.013-.09.01-.09.006-.091.003-.092-.001-.092-.005-.092-.008-.093-.012-.093-.016-.093-.02-16.575-3.911-.092-.024-.09-.027-.088-.031-.086-.034-.084-.037-.082-.04-.08-.043-.078-.046-.076-.049-.074-.052-.071-.054-.069-.057-.066-.059-.064-.062-.061-.064-.059-.066-.056-.068-.054-.071-.051-.072-.048-.074-.045-.076-.042-.078-.039-.079-.036-.081-.033-.082-.03-.084-.027-.085-.023-.086-.02-.087-.017-.088-.013-.089-.01-.09-.006-.09-.003-.091.001-.092.005-.092.008-.092.012-.093.016-.093.02-.093.024-.092.027-.09.031-.088.034-.086.037-.084.04-.082.043-.08.046-.078.049-.076.052-.074.054-.071.057-.069.059-.066.062-.064.064-.061.066-.059.068-.056.071-.054.072-.051.074-.048.076-.045.078-.042.079-.039.081-.036.082-.033.084-.03.085-.027.086-.023.087-.02.088-.017.089-.013.09-.01.09-.006.091-.003.092.001z" id="g"/></defs><use xmlns:xlink="http://www.w3.org/1999/xlink" xlink:href="#g" fill="#307abe"/><defs><path d="M124.379 924.231l.092.005.092.008.093.012.093.016.093.02 159.143 37.554.092.024.09.027.088.031.086.034.084.037.082.04.08.043.078.046.076.049.074.052.071.054.069.057.066.059.064.062.061.064.059.066.056.068.054.071.051.072.048.074.045.076.042.078.039.079.036.081.033.082.03.084.027.085.023.086.02.087.017.088.013.089.01.09.006.09.003.091-.001.092-.005.092-.008.092-.012.093-.016.093-.02.093-.024.092-.027.09-.031.088-.034.086-.037.084-.04.082-.043.08-.046.078-.049.076-.052.074-.054.071-.057.069-.059.066-.062.064-.064.061-.066.059-.068.056-.071.054-.072.051-.074.048-.076.045-.078.042-.079.039-.081.036-.082.033-.084.03-.085.027-.086.023-.087.02-.088.017-.089.013-.09.01-.09.006-.091.003-.092-.001-.092-.005-.092-.008-.093-.012-.093-.016-.093-.02-159.143-37.554-.092-.024-.09-.027-.088-.031-.086-.034-.084-.037-.082-.04-.08-.043-.078-.046-.076-.049-.074-.052-.071-.054-.069-.057-.066-.059-.064-.062-.061-.064-.059-.066-.056-.068-.054-.071-.051-.072-.048-.074-.045-.076-.042-.078-.039-.079-.036-.081-.033-.082-.03-.084-.027-.085-.023-.086-.02-.087-.017-.088-.013-.089-.01-.09-.006-.09-.003-.091.001-.092.005-.092.008-.092.012-.093.016-.093.02-.093.024-.092.027-.09.031-.088.034-.086.037-.084.04-.082.043-.08.046-.078.049-.076.052-.074.054-.071.057-.069.059-.066.062-.064.064-.061.066-.059.068-.056.071-.054.072-.051.074-.048.076-.045.078-.042.079-.039.081-.036.082-.033.084-.03.085-.027.086-.023.087-.02.088-.017.089-.013.09-.01.09-.006.091-.003.092.001z" id="h"/></defs><use xmlns:xlink="http://www.w3.org/1999/xlink" xlink:href="#h" fill="#307abe"/><defs><path d="M295.462 964.602l.092.005.092.008.093.012.093.016.093.02 16.575 3.911.092.024.09.027.088.031.086.034.084.037.082.04.08.043.078.046.076.049.074.052.071.054.069.057.066.059.064.062.061.064.059.066.056.068.054.071.051.072.048.074.045.076.042.078.039.079.036.081.033.082.03.084.027.085.023.086.02.087.017.088.013.089.01.09.006.09.003.091-.001.092-.005.092-.008.092-.012.093-.016.093-.02.093-.024.092-.027.09-.031.088-.034.086-.037.084-.04.082-.043.08-.046.078-.049.076-.052.074-.054.071-.057.069-.059.066-.062.064-.064.061-.066.059-.068.056-.071.054-.072.051-.074.048-.076.045-.078.042-.079.039-.081.036-.082.033-.084.03-.085.027-.086.023-.087.02-.088.017-.089.013-.09.01-.09.006-.091.003-.092-.001-.092-.005-.092-.008-.093-.012-.093-.016-.093-.02-16.575-3.911-.092-.024-.09-.027-.088-.031-.086-.034-.084-.037-.082-.04-.08-.043-.078-.046-.076-.049-.074-.052-.071-.054-.069-.057-.066-.059-.064-.062-.061-.064-.059-.066-.056-.068-.054-.071-.051-.072-.048-.074-.045-.076-.042-.078-.039-.079-.036-.081-.033-.082-.03-.084-.027-.085-.023-.086-.02-.087-.017-.088-.013-.089-.01-.09-.006-.09-.003-.091.001-.092.005-.092.008-.092.012-.093.016-.093.02-.093.024-.092.027-.09.031-.088.034-.086.037-.084.04-.082.043-.08.046-.078.049-.076.052-.074.054-.071.057-.069.059-.066.062-.064.064-.061.066-.059.068-.056.071-.054.072-.051.074-.048.076-.045.078-.042.079-.039.081-.036.082-.033.084-.03.085-.027.086-.023.087-.02.088-.017.089-.013.09-.01.09-.006.091-.003.092.001z" id="i"/></defs><use xmlns:xlink="http://www.w3.org/1999/xlink" xlink:href="#i" fill="#307abe"/><defs><path d="M597.411 865.12l.078.005.078.008.078.011.077.013.076.016.076.019.075.022.074.025.073.028.072.031.071.033.07.036.068.039.067.041.065.044.064.047.062.049.06.052.058.054.056.057.054.059.052.062.05.064.048.067.045.069.043.071.04.074.037.075.034.076.03.077.027.077.024.078.021.078.017.079.014.079.011.079.008.079.005.079.002.079-.001.079-.005.078-.008.078-.011.078-.013.077-.016.076-.019.076-.022.075-.025.074-.028.073-.031.072-.033.071-.036.07-.039.068-.041.067-.044.065-.047.064-.049.062-.052.06-.054.058-.057.056-.059.054-.062.052-.064.05-.067.048-.069.045-.071.043-.074.04-128.115 66.528-.075.037-.076.034-.077.03-.077.027-.078.024-.078.021-.079.017-.079.014-.079.011-.079.008-.079.005-.079.002-.079-.001-.078-.005-.078-.008-.078-.011-.077-.013-.076-.016-.076-.019-.075-.022-.074-.025-.073-.028-.072-.031-.071-.033-.07-.036-.068-.039-.067-.041-.065-.044-.064-.047-.062-.049-.06-.052-.058-.054-.056-.057-.054-.059-.052-.062-.05-.064-.048-.067-.045-.069-.043-.071-.04-.074-.037-.075-.034-.076-.03-.077-.027-.077-.024-.078-.021-.078-.017-.079-.014-.079-.011-.079-.008-.079-.005-.079-.002-.079.001-.079.005-.078.008-.078.011-.078.013-.077.016-.076.019-.076.022-.075.025-.074.028-.073.031-.072.033-.071.036-.07.039-.068.041-.067.044-.065.047-.064.049-.062.052-.06.054-.058.057-.056.059-.054.062-.052.064-.05.067-.048.069-.045.071-.043.074-.04 128.115-66.528.075-.037.076-.034.077-.03.077-.027.078-.024.078-.021.079-.017.079-.014.079-.011.079-.008.079-.005.079-.002.079.001z" id="j"/></defs><use xmlns:xlink="http://www.w3.org/1999/xlink" xlink:href="#j" fill="#307abe"/><defs><path d="M577.411 895.432l.078.005.078.008.078.011.077.013.076.016.076.019.075.022.074.025.073.028.072.031.071.033.07.036.068.039.067.041.065.044.064.047.062.049.06.052.058.054.056.057.054.059.052.062.05.064.048.067.045.069.043.071.04.074.037.075.034.076.03.077.027.077.024.078.021.078.017.079.014.079.011.079.008.079.005.079.002.079-.001.079-.005.078-.008.078-.011.078-.013.077-.016.076-.019.076-.022.075-.025.074-.028.073-.031.072-.033.071-.036.07-.039.068-.041.067-.044.065-.047.064-.049.062-.052.06-.054.058-.057.056-.059.054-.062.052-.064.05-.067.048-.069.045-.071.043-.074.04-128.115 66.528-.075.037-.076.034-.077.03-.077.027-.078.024-.078.021-.079.017-.079.014-.079.011-.079.008-.079.005-.079.002-.079-.001-.078-.005-.078-.008-.078-.011-.077-.013-.076-.016-.076-.019-.075-.022-.074-.025-.073-.028-.072-.031-.071-.033-.07-.036-.068-.039-.067-.041-.065-.044-.064-.047-.062-.049-.06-.052-.058-.054-.056-.057-.054-.059-.052-.062-.05-.064-.048-.067-.045-.069-.043-.071-.04-.074-.037-.075-.034-.076-.03-.077-.027-.077-.024-.078-.021-.078-.017-.079-.014-.079-.011-.079-.008-.079-.005-.079-.002-.079.001-.079.005-.078.008-.078.011-.078.013-.077.016-.076.019-.076.022-.075.025-.074.028-.073.031-.072.033-.071.036-.07.039-.068.041-.067.044-.065.047-.064.049-.062.052-.06.054-.058.057-.056.059-.054.062-.052.064-.05.067-.048.069-.045.071-.043.074-.04 128.115-66.528.075-.037.076-.034.077-.03.077-.027.078-.024.078-.021.079-.017.079-.014.079-.011.079-.008.079-.005.079-.002.079.001z" id="k"/></defs><use xmlns:xlink="http://www.w3.org/1999/xlink" xlink:href="#k" fill="#307abe"/><defs><path d="M2423.032 1120.572c1.199 13.913-2.931 11.476-21.564 16.446l-237.4 41.65c-19.332 3.846-20.127 1.207-25.156-1.773l-203.263-206.115c-15.201-15.335-15.072-15.397 1.92-22.737l183.204-27.893c15.029-6.67 15.032-6.67 25.76 1.239z" id="l"/></defs><use xmlns:xlink="http://www.w3.org/1999/xlink" xlink:href="#l" fill="#f1f7fc"/><use xmlns:xlink="http://www.w3.org/1999/xlink" xlink:href="#l" stroke="#307abe" stroke-width="3" fill="none"/><defs><path d="M2420.084 1115.735c6.37 4.574 5.495 7.82-18.325 12.54l-252.025 47.463c-6.332-.154-7.127-2.793-12.156-5.773l-203.263-206.115c-15.201-15.335-15.072-15.397 1.92-22.737l183.204-27.893c15.029-6.67 15.032-6.67 25.76 1.239z" id="m"/></defs><use xmlns:xlink="http://www.w3.org/1999/xlink" xlink:href="#m" fill="#fff"/><use xmlns:xlink="http://www.w3.org/1999/xlink" xlink:href="#m" stroke="#307abe" stroke-width="2" fill="none"/><defs><path d="M2400.6 1091.583c6.267 15.437 10.96 24.532-17.954 27.915l-236.676 48.115c-4.336-11.352-5.11-13.841-9.86-16.686l-192.89-195.564c-14.424-14.551-14.304-14.608 1.56-21.372l171.588-24.719c14.03-6.149 14.033-6.149 24.182 1.379z" id="n"/></defs><use xmlns:xlink="http://www.w3.org/1999/xlink" xlink:href="#n" fill="#fff"/><use xmlns:xlink="http://www.w3.org/1999/xlink" xlink:href="#n" stroke="#307abe" stroke-width="2" fill="none"/><defs><path d="M2397.833 1089.263c5.224 3.337 5.224 6.108-19.56 10.394l-221.305 39.212c-18.086 4.398-18.86 1.909-23.61-.936l-192.89-195.564c-14.424-14.551-14.304-14.608 18.06-5.372l155.088-40.719c14.03-6.149 14.033-6.149 24.182 1.379z" id="o"/></defs><use xmlns:xlink="http://www.w3.org/1999/xlink" xlink:href="#o" fill="#fff"/><use xmlns:xlink="http://www.w3.org/1999/xlink" xlink:href="#o" stroke="#307abe" stroke-width="2" fill="none"/><defs><path d="M2384.411 1113.592l10.473 7.87 27.593 33.508-2.671.948-35.776-21.469-17.034-16.051z" id="p"/></defs><use xmlns:xlink="http://www.w3.org/1999/xlink" xlink:href="#p" fill="#fff"/><use xmlns:xlink="http://www.w3.org/1999/xlink" xlink:href="#p" stroke="#307abe" stroke-width="2" fill="none"/><defs><path d="M2424.464 1156.62c.51.437.57 1.205.133 1.715l-.038.044c-.437.51-1.205.57-1.715.133l-12.599-7.834c-.51-.437-.611-2.219.264-3.344l1.334-1.559c.741-.899 2.255-.655 2.926-.408z" id="q"/></defs><use xmlns:xlink="http://www.w3.org/1999/xlink" xlink:href="#q" fill="#307abe"/><use xmlns:xlink="http://www.w3.org/1999/xlink" xlink:href="#q" stroke="#307abe" fill="none"/><defs><path d="M2384.593 1112.727l7.453 6.263.132.114.127.117.122.12.118.123.113.125.108.127.103.129.098.131.093.133.088.135.082.136.077.137.072.138.067.139.062.14.056.141.051.141.046.141.04.141.035.141.029.141.024.14.018.14.012.139.007.138.001.137-.005.136-.01.134-.016.133-.022.131-.028.129-.034.127-.04.125-.046.122-.052.119-.058.117-.064.114-.07.111-.076.107-.083.104-.088.099-.093.094-.097.088-.101.083-.105.077-.109.072-.112.066-.116.061-.119.055-.122.05-.125.044-.128.039-.13.033-.133.028-.135.023-.137.017-.139.012-.141.006-.142.001-.144-.004-.145-.01-.146-.015-.147-.021-.148-.026-.148-.031-.149-.037-.149-.042-.149-.047-.149-.053-.148-.058-.148-.063-.147-.068-.146-.074-.145-.079-.144-.084-.143-.089-.141-.095-.139-.1-.02-.016-.001.013-.013.166-.019.167-.026.167-.032.168-.038.168-.044.168-.05.168-.056.168-.062.167-.068.166-.074.166-.081.164-.087.163-.093.162-.099.16-.105.158-.111.156-.117.154-.123.151-.128.147-.131.142-.135.136-.138.13-.141.125-.143.119-.146.113-.148.108-.15.102-.152.096-.154.09-.156.084-.157.078-.158.072-.159.066-.16.06-.161.054-.161.048-.161.042-.161.035-.161.029-.161.023-.16.017-.159.01-.158.004-.157-.003-.092-.006.072.095.077.107.074.106.07.105.066.105.063.104.059.103.055.102.051.1.047.099.043.097.039.096.035.094.03.092.026.09.022.088.017.086.013.084.008.081.004.079-.001.076-.006.073-.01.071-.015.067-.02.064-.025.061-.03.058-.035.054-.04.051-.045.046-.049.042-.053.037-.057.033-.061.028-.065.024-.069.019-.072.015-.075.011-.079.007-.082.002-.085-.002-.088-.006-.09-.01-.093-.014-.095-.018-.098-.022-.1-.026-.102-.03-.104-.034-.106-.038-.108-.041-.109-.045-.111-.049-.112-.052-.114-.056-.115-.059-.116-.063-.116-.066-.117-.07-.118-.073-.118-.077-.119-.08-.119-.083-.119-.086-.119-.089-.119-.093-.119-.096-.118-.099-.118-.102-11.547-10.139-.116-.104-.113-.105-.11-.105-.107-.106-.104-.106-.041-.043-92.025-81.036 10.926-12.4 98.207 86.531z" id="r"/></defs><use xmlns:xlink="http://www.w3.org/1999/xlink" xlink:href="#r" fill="#e2ecf8"/><use xmlns:xlink="http://www.w3.org/1999/xlink" xlink:href="#r" stroke="#307abe" stroke-width="2" fill="none"/><defs><path d="M2388.305 1124.243l-32.697-29.354" id="s"/></defs><use xmlns:xlink="http://www.w3.org/1999/xlink" xlink:href="#s" stroke="#307abe" stroke-width="2" fill="none"/><defs><path d="M2373.348 1120.261l-32.697-29.354" id="t"/></defs><use xmlns:xlink="http://www.w3.org/1999/xlink" xlink:href="#t" stroke="#307abe" stroke-width="2" fill="none"/><defs><path d="M2383.053 1129.452l-4.821-4.01" id="u"/></defs><use xmlns:xlink="http://www.w3.org/1999/xlink" xlink:href="#u" stroke="#307abe" stroke-width="2" fill="none"/><defs><path d="M2396.478 1041.135c17.917 13.189 17.917 13.191-1.161 21.949l-236.338 109.337c-15.499 7.175-15.527 7.194-23.61-.936l-208.106-209.207c-14.424-14.551-14.304-14.608 1.56-21.372l199.336-82.452c14.03-6.149 14.033-6.149 24.182 1.379z" id="v"/></defs><use xmlns:xlink="http://www.w3.org/1999/xlink" xlink:href="#v" fill="#b3d0ec"/><use xmlns:xlink="http://www.w3.org/1999/xlink" xlink:href="#v" stroke="#307abe" stroke-width="3" fill="none"/><defs><path d="M2120.456 861.654l266.974 205.037-28.54 13.22-259.243-209.772z" id="w"/></defs><use xmlns:xlink="http://www.w3.org/1999/xlink" xlink:href="#w" fill="#fff"/><use xmlns:xlink="http://www.w3.org/1999/xlink" xlink:href="#w" stroke="#307abe" stroke-width="3" fill="none"/><defs><path d="M2438.12 879.212c4.277 0 7.749 3.472 7.749 7.749 0 4.277-3.472 7.749-7.749 7.749h-206.789c-4.277 0-7.749-3.472-7.749-7.749 0-4.277 3.472-7.749 7.749-7.749z" id="x"/></defs><use xmlns:xlink="http://www.w3.org/1999/xlink" xlink:href="#x" fill="#307abe"/><defs><path d="M407.895 1019.038c5.825-5.332 3.754-18.033-4.624-28.368-8.379-10.335-19.893-14.392-25.718-9.06-5.825 5.332-3.754 18.033 4.624 28.368 8.379 10.335 19.893 14.392 25.718 9.06z" id="y"/></defs><use xmlns:xlink="http://www.w3.org/1999/xlink" xlink:href="#y" fill="#b3d0ec"/><use xmlns:xlink="http://www.w3.org/1999/xlink" xlink:href="#y" stroke="#307abe" stroke-width="3" fill="none"/><defs><path d="M404.856 1022.202c5.825-5.332 3.754-18.033-4.624-28.368-8.379-10.335-19.893-14.392-25.718-9.06-5.825 5.332-3.754 18.033 4.624 28.368 8.379 10.335 19.893 14.392 25.718 9.06z" id="z"/></defs><use xmlns:xlink="http://www.w3.org/1999/xlink" xlink:href="#z" fill="#b3d0ec"/><use xmlns:xlink="http://www.w3.org/1999/xlink" xlink:href="#z" stroke="#307abe" stroke-width="3" fill="none"/><defs><path d="M389.112 1009.597l-.166-.013-.369-.024-.826-.097-.838-.139-.849-.181-.859-.223-.868-.264-.876-.304-.883-.344-.889-.384-.893-.423-.897-.462-.899-.5-.901-.538-.901-.575-.901-.612-.899-.648-.896-.684-.892-.719-.888-.754-.882-.788-.875-.822-.867-.856-.858-.889-.847-.921-.836-.953-.824-.985-.811-1.016-.796-1.046-.781-1.076-.757-1.095-.726-1.103-.695-1.109-.663-1.115-.631-1.119-.6-1.122-.568-1.123-.536-1.124-.503-1.123-.471-1.121-.438-1.118-.406-1.113-.373-1.107-.34-1.101-.307-1.092-.273-1.083-.24-1.073-.206-1.061-.173-1.048-.139-1.034-.105-1.018-.071-1.002-.037-.984-.002-.965.032-.945.067-.923.102-.9.137-.876.172-.851.208-.825.243-.797.279-.769.314-.739.35-.707.386-.675.422-.641.459-.606.495-.57.532-.533.568-.495.599-.451.624-.402.648-.355.67-.307.692-.261.713-.214.732-.168.75-.123.768-.078.784-.034.799.01.813.054.826.097.838.139.316.068 1.889 2.667-.097-.004-.638.005-.626.039-.614.074-.6.109-.586.144-.572.18-.556.217-.539.253-.522.29-.504.328-.485.365-.46.399-.432.429-.403.458-.374.486-.346.513-.317.539-.289.564-.261.588-.233.611-.205.633-.177.655-.149.675-.121.694-.094.713-.066.73-.039.746-.012.762.016.776.043.79.07.802.097.814.123.825.15.834.177.843.203.851.23.858.256.864.282.869.308.873.334.876.36.878.386.879.412.879.437.878.463.876.488.874.514.87.539.865.564.86.589.853.608.838.621.814.633.789.644.764.654.739.664.714.672.688.68.662.687.636.693.609.698.581.702.554.706.526.708.498.71.469.711.44.711.411.711.381.709.351.707.32.704.289.7.258.695.227.689.195.683.162.675.13.667.097.658.063.648.03.253-.002v.006h.006l.175.006.174.013.173.02.172.027.171.034.17.04.168.047.167.054.165.06.163.067.16.073.158.079.155.085.152.091.149.097.146.103.142.109.139.115.135.121.131.126.127.132.122.137.118.143.113.148.108.153.103.158.097.163.092.168.086.173.08.178.073.181.066.182.058.183.051.183.043.184.036.184.029.184.022.184.015.184.008.183.001.183-.006.182-.012.181-.019.179-.026.178-.032.176-.039.174-.045.172-.051.17-.058.167-.064.165-.07.162-.076.159-.082.156-.088.152-.093.148-.099.145-.105.141-.11.136-.116.132-.121.127-.127.122-.132.117-.137.112-.142.107-.147.101-.152.095-.157.089-.162.083-.167.077-.17.07-.171.062-.173.054-.173.046-.174.038-.175.031-.175.023-.175.016-.175.009-.175.001-.133-.004h-.002l-.039-.001z" id="A"/></defs><use xmlns:xlink="http://www.w3.org/1999/xlink" xlink:href="#A" fill="#fff"/><use xmlns:xlink="http://www.w3.org/1999/xlink" xlink:href="#A" stroke="#307abe" stroke-width="3" fill="none"/><defs><path d="M298.164 1051.526l21.526 7.562 12.914 24.322-71.609 47.066-13.527-24.421-12.348-14.179 63.045-40.35z" id="B"/></defs><use xmlns:xlink="http://www.w3.org/1999/xlink" xlink:href="#B" fill="#fff"/><use xmlns:xlink="http://www.w3.org/1999/xlink" xlink:href="#B" stroke="#307abe" stroke-width="3" fill="none"/><defs><path d="M319.689 1059.088l-67.971 44.077" id="C"/></defs><use xmlns:xlink="http://www.w3.org/1999/xlink" xlink:href="#C" stroke="#307abe" stroke-width="3" fill="none"/><defs><path d="M236.883 1105.08c10.864-8.303 13.098-13.263 16.097-8.261l15.412 30.4c3.191 6.701 3.19 6.7-2.513 9.902l-28.538 16.018c-29.839 16.91-39.897 11.605-57.47-.241l-141.137-101.631c34.969 7.722 131.88 90.272 175.389 67.58z" id="D"/></defs><use xmlns:xlink="http://www.w3.org/1999/xlink" xlink:href="#D" fill="#b3d0ec"/><use xmlns:xlink="http://www.w3.org/1999/xlink" xlink:href="#D" stroke="#307abe" stroke-width="3" fill="none"/><defs><path d="M137.991 1086.829l.172-.054 1.17.518 1.115.493 1.063.469 1.015.447.971.426.93.406.894.388.862.371.833.356.809.342.789.329.772.318.759.308.751.3.746.293.745.287.748.283.755.28.766.279.781.279.8.28.823.283.85.288.88.293.915.3.953.309.996.319 1.042.33 1.092.343 1.147.357 1.205.373 1.267.39 1.333.408 1.403.428 1.477.449 1.555.472 1.636.496 1.722.521 1.812.548 1.905.576 9.91 2.414 2.854-1.77 2.713-1.671 2.578-1.575 2.447-1.48 2.32-1.388 2.198-1.299 2.081-1.211 1.968-1.126 1.86-1.043 1.756-.962 1.657-.883 1.563-.807 1.473-.733 1.387-.661 1.307-.591 1.23-.524 1.159-.458 1.092-.395 1.029-.335.971-.276.918-.22.869-.166.825-.114.786-.065.751-.017.72.028.695.071.673.111.657.149.645.186.637.219.634.251.636.28.642.308.653.333.668.355.688.376.713.394.742.41.775.424 3.377 1.879.924.51.876.486.828.462.781.44.732.42.684.401.636.383.587.367.538.352.489.339.44.327.391.317.341.307.292.3.242.294.192.289.142.285.091.283.041.283-.01.284-.061.286-.112.29-.163.295-.215.301-.266.309-.318.319-.37.33-.422.342-.475.355-.527.371-.58.387-.633.405-.686.424-.739.445-.792.467-.846.491-.9.516-.954.543-1.008.57-1.062.6-25.081 14.032-1.795 1.016-1.712.956-1.637.894-1.573.83-1.518.764-1.472.697-1.437.627-1.411.555-1.394.482-1.387.406-1.39.329-1.403.25-1.425.168-1.457.085h-1.498l-1.549-.087-1.61-.176-1.68-.267-1.76-.36-1.85-.454-1.949-.551-2.058-.65-2.176-.75-2.304-.853-2.442-.957-2.59-1.063-2.747-1.172-2.913-1.282-3.09-1.394-3.276-1.508-3.472-1.624-3.677-1.742-3.892-1.862-4.116-1.983-4.351-2.107-4.594-2.233-4.848-2.36-5.111-2.49-5.384-2.621-5.666-2.754 7.892-2.485-77.035-43.785 7.747-6.667 84.464 45.672z" id="E"/></defs><use xmlns:xlink="http://www.w3.org/1999/xlink" xlink:href="#E" fill="#b3d0ec"/><use xmlns:xlink="http://www.w3.org/1999/xlink" xlink:href="#E" stroke="#307abe" stroke-width="3" fill="none"/><defs><path d="M333.042 975.869l.839.061.846.11.851.158.856.205.86.252.863.298.864.343.865.387.865.431.864.474.861.516.858.558.854.598.848.638.842.677.835.716.826.754.817.791.807.827.795.863.783.898.77.932.755.965.74.998.723 1.03.706 1.061.688 1.091.668 1.121.648 1.15.626 1.178.604 1.206.58 1.233.556 1.259.525 1.272.49 1.272.454 1.271.419 1.268.384 1.265.349 1.26.314 1.253.28 1.246.245 1.237.211 1.227.177 1.216.143 1.204.109 1.19.075 1.175.042 1.159.009 1.142-.025 1.123-.058 1.103-.09 1.082-.123 1.06-.155 1.036-.188 1.011-.22.985-.252.958-.284.929-.315.9-.347.869-.378.836-.409.803-.44.768-.471.732-.502.695-.532.656-.563.616-.593.575-.623.533-.653.49-.682.445-.712.399-.741.352-.763.301-.777.247-.79.194-.802.141-.812.09-.822.039-.831-.012-.839-.061-.846-.11-.851-.158-.856-.205-.86-.252-.863-.298-.864-.343-.322-.144-1.465-3.431.104.031.693.166.689.128.684.089.679.05.672.009.665-.031.657-.072.649-.114.639-.157.629-.2.617-.243.6-.285.576-.323.552-.36.528-.396.504-.431.48-.466.455-.499.431-.531.406-.562.381-.592.356-.621.331-.65.306-.677.281-.703.255-.728.23-.752.204-.775.178-.797.152-.818.126-.838.099-.857.073-.876.047-.893.02-.909-.007-.924-.034-.938-.061-.951-.088-.963-.116-.974-.143-.984-.171-.993-.198-1.001-.226-1.008-.254-1.014-.282-1.019-.311-1.023-.339-1.026-.368-1.028-.396-1.029-.425-1.029-.45-1.018-.47-.997-.489-.976-.507-.953-.524-.931-.541-.907-.556-.883-.571-.858-.585-.833-.599-.807-.611-.781-.623-.754-.634-.726-.644-.698-.653-.669-.661-.64-.669-.61-.675-.579-.681-.548-.686-.516-.691-.484-.694-.451-.697-.418-.699-.383-.7-.349-.7-.313-.699-.277-.698-.241-.696-.204-.693-.166-.689-.128-.684-.089-.679-.05-.672-.009-.665.031-.657.072-.649.114-.639.157-.629.2-.617.243-.6.285-.576.323-.552.36-.528.396-.504.431-.48.466-.455.499-.431.531-.406.562-.381.592-.356.621-.049.097-1.466-3.431.117-.334.347-.869.378-.836.409-.803.44-.768.471-.732.502-.695.532-.656.563-.616.593-.575.623-.533.653-.49.682-.445.712-.399.741-.352.763-.301.777-.247.79-.194.802-.141.812-.09.822-.039.831.012z" id="F"/></defs><use xmlns:xlink="http://www.w3.org/1999/xlink" xlink:href="#F" fill="#fff"/><use xmlns:xlink="http://www.w3.org/1999/xlink" xlink:href="#F" stroke="#307abe" stroke-width="3" fill="none"/><defs><path d="M67.819 926.227c3.864-2.589 3.773-1.208 10.846 7.913l9.569 13.1c7.317 9.78 10.253 10.227-1.428 22.789l-14.785 15.38c-11.613 12.1-43.024 23.463-52.995 19.91l-5.823-23.868c7.191-14.384 8.164-20.192 29.937-40.024z" id="G"/></defs><use xmlns:xlink="http://www.w3.org/1999/xlink" xlink:href="#G" fill="#b3d0ec"/><use xmlns:xlink="http://www.w3.org/1999/xlink" xlink:href="#G" stroke="#307abe" stroke-width="3" fill="none"/><defs><path d="M453.615 816.578l1.089 2.956 1.216 2.761 1.32 2.586 1.401 2.429 1.46 2.291 1.496 2.172 1.509 2.071 1.499 1.99 1.467 1.927 1.412 1.883 1.335 1.857 1.235 1.851 1.112 1.863.966 1.894.798 1.944.607 2.013.393 2.1.157 2.206-.102 2.331-.384 2.475-.306 1.17-.094-.55-.435-1.099-.622-.926-.784-.768-.92-.624-1.029-.496-1.113-.384-1.171-.286-1.203-.204-1.209-.136-1.189-.084-1.143-.047-1.072-.025-.974-.018-.85-.027-.701-.05-.526-.089-.324-.143-6.292-5.868-2.829-2.847-3.209-2.626-3.57-2.411-3.912-2.201-4.236-1.997-4.541-1.798-4.828-1.605-5.096-1.418-5.345-1.236-5.576-1.061-5.788-.89-5.981-.726-6.156-.567-6.313-.413-6.45-.266-6.569-.124-6.67.013-6.751.143-6.814.269-6.859.388-6.885.502-6.892.61-6.881.712-6.851.809-6.802.9-6.735.986-6.649 1.066-6.545 1.14-6.421 1.209-6.28 1.272-6.119 1.329-5.94 1.381-5.743 1.427-5.527 1.467-5.292 1.502-5.038 1.531-4.766 1.554-4.475 1.572-4.166 1.584-1.656.686-5.748-13.453.557-.333 2.755-1.574 2.831-1.544 2.912-1.512 2.997-1.478 3.087-1.443 3.18-1.407 3.278-1.369 3.381-1.33 3.488-1.289 3.599-1.247 3.714-1.203 3.834-1.158 3.958-1.111 4.086-1.063 4.219-1.013 4.356-.962 4.497-.91 4.642-.856 4.792-.8 4.947-.743 5.105-.685 5.268-.625 5.435-.564 5.607-.501 5.783-.437 5.963-.371 6.147-.304 116.459 6.479z" id="H"/></defs><use xmlns:xlink="http://www.w3.org/1999/xlink" xlink:href="#H" fill="#b3d0ec"/><use xmlns:xlink="http://www.w3.org/1999/xlink" xlink:href="#H" stroke="#307abe" stroke-width="3" fill="none"/><defs><path d="M467.15 830.398l.663 1.51.727 1.523.774 1.542.803 1.569.816 1.602.81 1.643.788 1.69.748 1.745.691 1.806.616 1.874.524 1.95.414 2.032.287 2.121.143 2.217-.018 2.32-.197 2.431-.394 2.548-.608 2.672-.839 2.803-1.087 2.941-1.353 3.086-1.637 3.238-1.937 3.397-2.255 3.563-2.591 3.736-2.944 3.916-3.314 4.103-3.701 4.297-4.106 4.498-4.529 4.706-4.968 4.921-5.426 5.143-5.9 5.371-6.392 5.607-6.901 5.85-7.428 6.1-7.972 6.356-8.533 6.62-9.112 6.891-9.708 7.168-17.845 13.362-10.511 8.323-10.341 7.97-10.172 7.621-10.002 7.276-9.832 6.934-9.662 6.596-9.492 6.262-9.322 5.931-9.152 5.604-8.981 5.281-8.81 4.961-8.639 4.645-8.468 4.332-8.297 4.023-8.126 3.718-7.955 3.417-7.783 3.119-7.611 2.824-7.439 2.534-7.267 2.247-7.095 1.963-6.923 1.684-6.75 1.408-6.578 1.135-6.405.866-6.232.601-6.059.34-5.886.082-5.712-.173-5.539-.423-5.365-.67-5.191-.913-5.017-1.153-4.843-1.389-4.669-1.622-4.495-1.85-4.32-2.075-4.145-2.297-3.971-2.515-3.796-2.729-4.326-3.506-4.294-3.507-4.247-3.509-4.185-3.512-4.108-3.515-4.016-3.52-3.909-3.526-3.787-3.533-3.65-3.541-3.497-3.549-3.33-3.559-3.148-3.57-2.95-3.582-2.738-3.594-2.51-3.608-2.268-3.623-2.01-3.638-1.737-3.655-1.45-3.673-1.147-3.691-.829-3.711-.496-3.732-.148-3.753.215-3.776.593-3.8.986-3.824 1.394-3.85 1.817-3.876 2.256-3.904 2.709-3.932 3.177-3.962 3.661-3.992 4.159-4.024 4.673-4.056 5.201-4.09 5.745-4.124 6.304-4.16 6.877-4.196 7.466-4.234 8.07-4.272 1.369-.724.607 1.42-.159.086-6.392 3.686-5.93 3.655-5.477 3.624-5.035 3.594-4.602 3.564-4.179 3.536-3.766 3.507-3.363 3.479-2.969 3.452-2.585 3.426-2.211 3.4-1.847 3.375-1.492 3.35-1.148 3.326-.813 3.302-.487 3.279-.172 3.257.134 3.235.429 3.214.715 3.193.992 3.173 1.258 3.154 1.515 3.135 1.762 3.117 1.999 3.099 2.226 3.082 2.444 3.066 2.651 3.05 2.849 3.035 3.038 3.02 3.216 3.006 3.385 2.992 3.544 2.98 3.693 2.967 3.832 2.956 3.962 2.945 4.081 2.934 4.191 2.924 4.291 2.915 3.706 2.448 3.877 2.196 4.045 1.946 4.211 1.697 4.376 1.449 4.538 1.202 4.698.957 4.856.712 5.012.469 5.167.226 5.319-.015 5.469-.255 5.617-.494 5.763-.732 5.907-.968 6.049-1.204 6.189-1.438 6.327-1.672 6.463-1.904 6.596-2.135 6.728-2.365 6.858-2.594 6.986-2.821 7.112-3.048 7.235-3.273 7.357-3.498 7.477-3.721 7.594-3.943 7.71-4.164 7.823-4.384 7.935-4.602 8.045-4.82 8.152-5.036 8.258-5.251 8.361-5.466 8.462-5.679 8.562-5.891 8.659-6.101 8.754-6.311 8.848-6.519 16.547-12.182 10.698-8.001 10.062-7.729 9.434-7.461 8.813-7.195 8.2-6.932 7.595-6.673 6.997-6.417 6.407-6.164 5.825-5.914 5.25-5.667 4.683-5.423 4.123-5.183 3.571-4.945 3.027-4.711 2.49-4.48 1.961-4.252 1.44-4.027.926-3.805.42-3.587-.079-3.371-.569-3.159-1.053-2.95-1.528-2.744-1.996-2.541-2.457-2.341-1.738-1.281 23.521 3.673z" id="I"/></defs><use xmlns:xlink="http://www.w3.org/1999/xlink" xlink:href="#I" fill="#e2ecf8"/><use xmlns:xlink="http://www.w3.org/1999/xlink" xlink:href="#I" stroke="#307abe" stroke-width="3" fill="none"/><defs><path d="M392.599 802.457l8.466.45 8.013.676 7.55.903 7.08 1.132 6.602 1.361 6.115 1.591 5.62 1.822 5.117 2.054 4.606 2.287 4.086 2.521 3.559 2.756 3.023 2.992 2.479 3.229 1.926 3.467 1.366 3.706.797 3.945.22 4.186-.365 4.428-.958 4.671-1.56 4.914-2.169 5.159-2.787 5.404-3.413 5.651-4.048 5.898-4.69 6.147-5.341 6.396-6 6.646-6.667 6.897-7.342 7.15-8.026 7.403-8.717 7.657-9.417 7.912-10.125 8.168-10.842 8.425-11.566 8.683-17.917 13.191-9.581 7.06-9.48 6.834-9.377 6.607-9.271 6.379-9.163 6.149-9.054 5.918-8.942 5.687-8.827 5.453-8.711 5.219-8.592 4.984-8.472 4.747-8.349 4.509-8.223 4.27-8.096 4.029-7.966 3.787-7.835 3.545-7.701 3.3-7.565 3.055-7.426 2.809-7.286 2.561-7.143 2.312-6.998 2.062-6.851 1.81-6.701 1.558-6.55 1.304-6.396 1.049-6.24.792-6.082.535-5.922.276-5.759.016-5.595-.245-5.428-.507-5.259-.771-5.087-1.036-4.914-1.302-4.738-1.569-4.56-1.838-4.38-2.107-4.198-2.378-4.013-2.65-4.647-3.156-4.538-3.167-4.419-3.177-4.29-3.189-4.149-3.201-3.999-3.213-3.837-3.226-3.665-3.24-3.483-3.255-3.289-3.27-3.086-3.286-2.871-3.303-2.646-3.32-2.411-3.337-2.164-3.356-1.908-3.375-1.64-3.395-1.362-3.415-1.074-3.436-.775-3.458-.465-3.48-.145-3.503.186-3.526.528-3.551.88-3.576 1.243-3.601 1.616-3.627 2-3.654 2.394-3.682 2.799-3.71 3.215-3.738 3.641-3.768 4.078-3.798 4.525-3.828 4.983-3.86 5.452-3.892 5.931-3.924 6.421-3.958 6.921-3.992 7.432-4.026 1.369-.724.607 1.42-.159.086-6.392 3.686-5.93 3.655-5.477 3.624-5.035 3.594-4.602 3.564-4.179 3.536-3.766 3.507-3.363 3.479-2.969 3.452-2.585 3.426-2.211 3.4-1.847 3.375-1.492 3.35-1.148 3.326-.813 3.302-.487 3.279-.172 3.257.134 3.235.429 3.214.715 3.193.992 3.173 1.258 3.154 1.515 3.135 1.762 3.117 1.999 3.099 2.226 3.082 2.444 3.066 2.651 3.05 2.849 3.035 3.038 3.02 3.216 3.006 3.385 2.992 3.544 2.98 3.693 2.967 3.832 2.956 3.962 2.945 4.081 2.934 4.191 2.924 4.291 2.915 3.706 2.448 3.877 2.196 4.045 1.946 4.211 1.697 4.376 1.449 4.538 1.202 4.698.957 4.856.712 5.012.469 5.167.226 5.319-.015 5.469-.255 5.617-.494 5.763-.732 5.907-.968 6.049-1.204 6.189-1.438 6.327-1.672 6.463-1.904 6.596-2.135 6.728-2.365 6.858-2.594 6.986-2.821 7.112-3.048 7.235-3.273 7.357-3.498 7.477-3.721 7.594-3.943 7.71-4.164 7.823-4.384 7.935-4.602 8.045-4.82 8.152-5.036 8.258-5.251 8.361-5.466 8.462-5.679 8.562-5.891 8.659-6.101 8.754-6.311 8.848-6.519 16.547-12.182 10.704-8.006 10.08-7.744 9.459-7.484 8.844-7.227 8.233-6.973 7.626-6.721 7.025-6.471 6.427-6.225 5.835-5.98 5.247-5.738 4.663-5.499 4.085-5.263 3.511-5.028 2.941-4.797 2.376-4.568 1.816-4.341 1.26-4.117.709-3.896.163-3.677-.379-3.461-.917-3.247-1.449-3.036-1.977-2.828-2.501-2.621-3.02-2.418-3.534-2.217-4.043-2.019-4.548-1.823-5.049-1.629-5.545-1.439-6.036-1.251-6.522-1.065-7.004-.882-7.482-.701-7.954-.523-8.423-.348-8.886-.175-9.345-.005-9.799.163-10.249.328.019.061-6.252.287-6.069.36-5.891.432-5.716.502-5.545.569-5.377.635-5.214.699-5.055.761-4.899.821-4.747.879-4.6.935-4.456.988-4.316 1.041-4.179 1.091-4.047 1.139-3.919 1.185-3.794 1.229-3.673 1.271-3.556 1.311-3.443 1.35-3.334 1.386-3.229 1.421-3.128 1.453-3.03 1.483-2.937 1.512-2.847 1.538-.818.464-.652-1.527.735-.439 2.808-1.609 2.894-1.587 2.984-1.564 3.079-1.541 3.179-1.518 3.284-1.493 3.394-1.469 3.509-1.443 3.629-1.417 3.754-1.39 3.883-1.363 4.018-1.335 4.158-1.307 4.303-1.277 4.453-1.248 4.607-1.217 4.767-1.186 4.932-1.155 5.101-1.123 5.276-1.09 5.455-1.056 5.64-1.022 5.83-.988 6.024-.953 6.223-.917 6.428-.88 6.637-.843 10.613-.667 10.2-.446 9.779-.223h9.35l8.912.224z" id="J"/></defs><use xmlns:xlink="http://www.w3.org/1999/xlink" xlink:href="#J" fill="#fff"/><use xmlns:xlink="http://www.w3.org/1999/xlink" xlink:href="#J" stroke="#307abe" stroke-width="3" fill="none"/><defs><path d="M359.303 1053.103c7.043-4.083 7.467-16.897.947-28.621s-17.514-17.918-24.557-13.835c-7.043 4.083-7.467 16.897-.947 28.621s17.514 17.918 24.557 13.835z" id="K"/></defs><use xmlns:xlink="http://www.w3.org/1999/xlink" xlink:href="#K" fill="#f1f7fc"/><use xmlns:xlink="http://www.w3.org/1999/xlink" xlink:href="#K" stroke="#307abe" stroke-width="3" fill="none"/><defs><path d="M246.307 1138.111c5.494-3.084 7.329-10.313 4.098-16.147-3.231-5.834-10.305-8.063-15.799-4.979-5.494 3.084-7.329 10.313-4.098 16.147 3.231 5.834 10.305 8.063 15.799 4.979z" id="L"/></defs><use xmlns:xlink="http://www.w3.org/1999/xlink" xlink:href="#L" fill="#f1f7fc"/><use xmlns:xlink="http://www.w3.org/1999/xlink" xlink:href="#L" stroke="#307abe" stroke-width="3" fill="none"/><defs><path d="M355.551 1055.606c7.043-4.083 7.467-16.897.947-28.621s-17.514-17.918-24.557-13.835c-7.043 4.083-7.467 16.897-.947 28.621s17.514 17.918 24.557 13.835z" id="M"/></defs><use xmlns:xlink="http://www.w3.org/1999/xlink" xlink:href="#M" fill="#b3d0ec"/><use xmlns:xlink="http://www.w3.org/1999/xlink" xlink:href="#M" stroke="#307abe" stroke-width="3" fill="none"/><defs><path d="M2154.05 524.875c7.507 0 13.603 6.095 13.603 13.603v64.058c0 7.507-6.095 13.603-13.603 13.603h-144.3c-7.507 0-13.603-6.095-13.603-13.603v-64.058c0-7.507 6.095-13.603 13.603-13.603z" id="N"/></defs><use xmlns:xlink="http://www.w3.org/1999/xlink" xlink:href="#N" stroke="#e2ecf8" stroke-width="8" fill="none"/><defs><path d="M2068.493 616.138c7.507 0 13.603 6.095 13.603 13.603v64.058c0 7.507-6.095 13.603-13.603 13.603h-144.3c-7.507 0-13.603-6.095-13.603-13.603v-64.058c0-7.507 6.095-13.603 13.603-13.603z" id="O"/></defs><use xmlns:xlink="http://www.w3.org/1999/xlink" xlink:href="#O" stroke="#e2ecf8" stroke-width="8" fill="none"/><defs><path d="M1982.936 524.875c7.507 0 13.603 6.095 13.603 13.603v64.058c0 7.507-6.095 13.603-13.603 13.603h-144.3c-7.507 0-13.603-6.095-13.603-13.603v-64.058c0-7.507 6.095-13.603 13.603-13.603z" id="P"/></defs><use xmlns:xlink="http://www.w3.org/1999/xlink" xlink:href="#P" stroke="#e2ecf8" stroke-width="8" fill="none"/><defs><path d="M630.613 524.875c7.507 0 13.603 6.095 13.603 13.603v64.058c0 7.507-6.095 13.603-13.603 13.603h-144.3c-7.507 0-13.603-6.095-13.603-13.603v-64.058c0-7.507 6.095-13.603 13.603-13.603z" id="Q"/></defs><use xmlns:xlink="http://www.w3.org/1999/xlink" xlink:href="#Q" stroke="#e2ecf8" stroke-width="8" fill="none"/><defs><path d="M385.806 248.513c7.507 0 13.603 6.095 13.603 13.603v64.058c0 7.507-6.095 13.603-13.603 13.603h-144.3c-7.507 0-13.603-6.095-13.603-13.603v-64.058c0-7.507 6.095-13.603 13.603-13.603z" id="R"/></defs><use xmlns:xlink="http://www.w3.org/1999/xlink" xlink:href="#R" stroke="#e2ecf8" stroke-width="8" fill="none"/><defs><path d="M300.248 157.25c7.507 0 13.603 6.095 13.603 13.603v64.058c0 7.507-6.095 13.603-13.603 13.603h-144.3c-7.507 0-13.603-6.095-13.603-13.603v-64.058c0-7.507 6.095-13.603 13.603-13.603z" id="S"/></defs><use xmlns:xlink="http://www.w3.org/1999/xlink" xlink:href="#S" stroke="#e2ecf8" stroke-width="8" fill="none"/><defs><path d="M474.363 341.75c7.507 0 13.603 6.095 13.603 13.603v64.058c0 7.507-6.095 13.603-13.603 13.603h-144.3c-7.507 0-13.603-6.095-13.603-13.603v-64.058c0-7.507 6.095-13.603 13.603-13.603z" id="T"/></defs><use xmlns:xlink="http://www.w3.org/1999/xlink" xlink:href="#T" stroke="#e2ecf8" stroke-width="8" fill="none"/><defs><path d="M303.248 341.75c7.507 0 13.603 6.095 13.603 13.603v64.058c0 7.507-6.095 13.603-13.603 13.603h-144.3c-7.507 0-13.603-6.095-13.603-13.603v-64.058c0-7.507 6.095-13.603 13.603-13.603z" id="U"/></defs><use xmlns:xlink="http://www.w3.org/1999/xlink" xlink:href="#U" stroke="#e2ecf8" stroke-width="8" fill="none"/><defs><path d="M545.056 616.138c7.507 0 13.603 6.095 13.603 13.603v64.058c0 7.507-6.095 13.603-13.603 13.603h-144.3c-7.507 0-13.603-6.095-13.603-13.603v-64.058c0-7.507 6.095-13.603 13.603-13.603z" id="V"/></defs><use xmlns:xlink="http://www.w3.org/1999/xlink" xlink:href="#V" stroke="#e2ecf8" stroke-width="8" fill="none"/><defs><path d="M471.363 157.25c7.507 0 13.603 6.095 13.603 13.603v64.058c0 7.507-6.095 13.603-13.603 13.603h-144.3c-7.507 0-13.603-6.095-13.603-13.603v-64.058c0-7.507 6.095-13.603 13.603-13.603z" id="W"/></defs><use xmlns:xlink="http://www.w3.org/1999/xlink" xlink:href="#W" stroke="#e2ecf8" stroke-width="8" fill="none"/><defs><path d="M459.498 524.875c7.507 0 13.603 6.095 13.603 13.603v64.058c0 7.507-6.095 13.603-13.603 13.603h-144.3c-7.507 0-13.603-6.095-13.603-13.603v-64.058c0-7.507 6.095-13.603 13.603-13.603z" id="X"/></defs><use xmlns:xlink="http://www.w3.org/1999/xlink" xlink:href="#X" stroke="#e2ecf8" stroke-width="8" fill="none"/><defs><path d="M559.686 250.5c7.507 0 13.603 6.095 13.603 13.603v64.058c0 7.507-6.095 13.603-13.603 13.603h-144.3c-7.507 0-13.603-6.095-13.603-13.603v-64.058c0-7.507 6.095-13.603 13.603-13.603z" id="Y"/></defs><use xmlns:xlink="http://www.w3.org/1999/xlink" xlink:href="#Y" stroke="#e2ecf8" stroke-width="8" fill="none"/><defs><path d="M2299.868 207.888c7.507 0 13.603 6.095 13.603 13.603v64.058c0 7.507-6.095 13.603-13.603 13.603h-144.3c-7.507 0-13.603-6.095-13.603-13.603v-64.058c0-7.507 6.095-13.603 13.603-13.603z" id="Z"/></defs><use xmlns:xlink="http://www.w3.org/1999/xlink" xlink:href="#Z" stroke="#e2ecf8" stroke-width="8" fill="none"/><defs><path d="M2473.748 209.875c7.507 0 13.603 6.095 13.603 13.603v64.058c0 7.507-6.095 13.603-13.603 13.603h-144.3c-7.507 0-13.603-6.095-13.603-13.603v-64.058c0-7.507 6.095-13.603 13.603-13.603z" id="aa"/></defs><use xmlns:xlink="http://www.w3.org/1999/xlink" xlink:href="#aa" stroke="#e2ecf8" stroke-width="8" fill="none"/><defs><path d="M2217.373 301.125c7.507 0 13.603 6.095 13.603 13.603v64.058c0 7.507-6.095 13.603-13.603 13.603h-144.3c-7.507 0-13.603-6.095-13.603-13.603v-64.058c0-7.507 6.095-13.603 13.603-13.603z" id="ab"/></defs><use xmlns:xlink="http://www.w3.org/1999/xlink" xlink:href="#ab" stroke="#e2ecf8" stroke-width="8" fill="none"/><defs><path d="M2388.425 301.125c7.507 0 13.603 6.095 13.603 13.603v64.058c0 7.507-6.095 13.603-13.603 13.603h-144.3c-7.507 0-13.603-6.095-13.603-13.603v-64.058c0-7.507 6.095-13.603 13.603-13.603z" id="ac"/></defs><use xmlns:xlink="http://www.w3.org/1999/xlink" xlink:href="#ac" stroke="#e2ecf8" stroke-width="8" fill="none"/><defs><path d="M1183.188 849.619c4.277 0 7.749 3.472 7.749 7.749 0 4.277-3.472 7.749-7.749 7.749h-206.789c-4.277 0-7.749-3.472-7.749-7.749 0-4.277 3.472-7.749 7.749-7.749z" id="ad"/></defs><use xmlns:xlink="http://www.w3.org/1999/xlink" xlink:href="#ad" fill="#fff"/><use xmlns:xlink="http://www.w3.org/1999/xlink" xlink:href="#ad" stroke="#307abe" fill="none"/><defs><path d="M1893.438 76.73c32.52 0 58.923 28.596 58.923 63.819v802.69c0 35.223-26.402 63.819-58.923 63.819h-1281.737c-32.52 0-58.923-28.596-58.923-63.819v-802.69c0-35.223 26.402-63.819 58.923-63.819z" id="ae"/></defs><use xmlns:xlink="http://www.w3.org/1999/xlink" xlink:href="#ae" fill="#f1f7fc"/><use xmlns:xlink="http://www.w3.org/1999/xlink" xlink:href="#ae" stroke="#307abe" stroke-width="8" fill="none"/><defs><path d="M610.966 150.162h1283.11v709.989h-1283.11z" id="af"/></defs><use xmlns:xlink="http://www.w3.org/1999/xlink" xlink:href="#af" fill="#fff"/><use xmlns:xlink="http://www.w3.org/1999/xlink" xlink:href="#af" stroke="#307abe" stroke-width="5" fill="none"/><defs><path d="M1251.847 128.631c7.284 0 13.19-5.905 13.19-13.19 0-7.284-5.905-13.19-13.19-13.19-7.284 0-13.19 5.905-13.19 13.19 0 7.284 5.905 13.19 13.19 13.19z" id="ag"/></defs><use xmlns:xlink="http://www.w3.org/1999/xlink" xlink:href="#ag" fill="#b3d0ec"/><use xmlns:xlink="http://www.w3.org/1999/xlink" xlink:href="#ag" stroke="#307abe" stroke-width="2" fill="none"/><defs><path d="M551.647 924.971l-160.016 138.664c-18.905 18.543 20.994 51.213 68.856 63.819h1578.025c54.973-9.268 89.115-46.416 76.252-62.039l-160.513-140.445z" id="ah"/></defs><use xmlns:xlink="http://www.w3.org/1999/xlink" xlink:href="#ah" fill="#f1f7fc"/><use xmlns:xlink="http://www.w3.org/1999/xlink" xlink:href="#ah" stroke="#307abe" stroke-width="6" fill="none"/><defs><path d="M2116.54 1089.768l-.048 2.604-.143 2.577-.236 2.548-.327 2.518-.416 2.485-.504 2.45-.589 2.413-.673 2.374-.755 2.333-.835 2.29-.913 2.245-.989 2.198-1.064 2.149-1.136 2.098-1.207 2.045-1.276 1.99-1.343 1.933-1.408 1.873-1.471 1.812-1.533 1.749-1.592 1.683-1.65 1.616-1.706 1.546-1.76 1.475-1.812 1.401-1.862 1.326-1.911 1.248-1.957 1.168-2.002 1.086-2.045 1.003-2.086.917-2.125.829-2.162.739-2.198.647-2.231.553-2.263.457-2.293.359-2.321.259-2.347.157-2.371.053h-1613.546l-2.371-.053-2.347-.157-2.321-.259-2.293-.359-2.263-.457-2.231-.553-2.198-.647-2.162-.739-2.125-.829-2.086-.917-2.045-1.003-2.002-1.086-1.957-1.168-1.911-1.248-1.862-1.326-1.812-1.401-1.76-1.475-1.706-1.546-1.65-1.616-1.592-1.683-1.533-1.749-1.471-1.812-1.408-1.873-1.343-1.933-1.276-1.99-1.207-2.045-1.136-2.098-1.064-2.149-.989-2.198-.913-2.245-.835-2.29-.755-2.333-.673-2.374-.589-2.413-.504-2.45-.416-2.485-.327-2.518-.236-2.548-.143-2.577-.048-2.604v-9.639l.082.054 2.026 1.209 2.072 1.124 2.116 1.038 2.159.949 2.199.858 2.238.765 2.274.67 2.309.572 2.342.473 2.373.372 2.402.268 2.429.162 2.454.055h1669.728l2.454-.055 2.429-.162 2.402-.268 2.373-.372 2.342-.473 2.309-.572 2.274-.67 2.238-.765 2.199-.858 2.159-.949 2.116-1.038 2.072-1.124 2.026-1.209.082-.054v9.639z" id="ai"/></defs><use xmlns:xlink="http://www.w3.org/1999/xlink" xlink:href="#ai" fill="#e2ecf8"/><use xmlns:xlink="http://www.w3.org/1999/xlink" xlink:href="#ai" stroke="#307abe" stroke-width="8" fill="none"/><defs><path d="M1362.566 1088.905l.063 1.135.021 1.147-.021 1.147-.063 1.135-.104 1.123-.144 1.109-.184 1.095-.222 1.079-.26 1.063-.297 1.046-.333 1.028-.368 1.009-.403.989-.436.969-.469.947-.501.924-.532.901-.563.877-.592.851-.621.825-.649.798-.676.77-.702.742-.728.712-.752.681-.776.65-.799.617-.821.584-.843.55-.863.515-.883.479-.902.442-.92.404-.937.365-.954.326-.969.285-.984.244-.998.201-1.011.158-1.024.114-1.035.069-1.046.023h-167.621l-1.046-.023-1.035-.069-1.024-.114-1.011-.158-.998-.201-.984-.244-.969-.285-.954-.326-.937-.365-.92-.404-.902-.442-.883-.479-.863-.515-.843-.55-.821-.584-.799-.617-.776-.65-.752-.681-.728-.712-.702-.742-.676-.77-.649-.798-.621-.825-.592-.851-.563-.877-.532-.901-.501-.924-.469-.947-.436-.969-.403-.989-.368-1.009-.333-1.028-.297-1.046-.26-1.063-.222-1.079-.184-1.095-.144-1.109-.104-1.123-.063-1.135-.021-1.147.021-1.147.063-1.135.01-.109h218.213l.01.109z" id="aj"/></defs><use xmlns:xlink="http://www.w3.org/1999/xlink" xlink:href="#aj" fill="#fff"/><use xmlns:xlink="http://www.w3.org/1999/xlink" xlink:href="#aj" stroke="#307abe" stroke-width="8" fill="none"/><defs><path d="M1251.847 121.631c3.349 0 6.065-2.715 6.065-6.065 0-3.349-2.715-6.065-6.065-6.065-3.349 0-6.065 2.715-6.065 6.065 0 3.349 2.715 6.065 6.065 6.065z" id="ak"/></defs><use xmlns:xlink="http://www.w3.org/1999/xlink" xlink:href="#ak" fill="#b3d0ec"/><use xmlns:xlink="http://www.w3.org/1999/xlink" xlink:href="#ak" stroke="#307abe" stroke-width="2" fill="none"/><defs><path d="M1210.045 1182.598l.308.019.304.031.301.043.297.055.292.066.288.077.283.088.279.099.273.109.268.12.262.13.257.139.25.149.244.158.238.167.231.176.224.185.216.193.209.201.201.209.193.216.185.224.176.231.167.238.158.244.149.25.139.257.13.262.12.268.109.273.099.279.088.283.077.288.066.292.055.297.043.301.031.304.019.308.006.311-.006.311-.019.308-.031.304-.043.301-.055.297-.066.292-.077.288-.088.283-.099.279-.109.273-.12.268-.13.262-.139.257-.149.25-.158.244-.167.238-.176.231-.185.224-.193.216-.201.209-.209.201-.216.193-.224.185-.231.176-.238.167-.244.158-.25.149-.257.139-.262.13-.268.12-.273.109-.279.099-.283.088-.288.077-.292.066-.297.055-.301.043-.304.031-.308.019-.311.006h-535.531l-.311-.006-.308-.019-.304-.031-.301-.043-.297-.055-.292-.066-.288-.077-.283-.088-.279-.099-.273-.109-.268-.12-.262-.13-.257-.139-.25-.149-.244-.158-.238-.167-.231-.176-.224-.185-.216-.193-.209-.201-.201-.209-.193-.216-.185-.224-.176-.231-.167-.238-.158-.244-.149-.25-.139-.257-.13-.262-.12-.268-.109-.273-.099-.279-.088-.283-.077-.288-.066-.292-.055-.297-.043-.301-.031-.304-.019-.308-.006-.311.006-.311.019-.308.031-.304.043-.301.055-.297.066-.292.077-.288.088-.283.099-.279.109-.273.12-.268.13-.262.139-.257.149-.25.158-.244.167-.238.176-.231.185-.224.193-.216.201-.209.209-.201.216-.193.224-.185.231-.176.238-.167.244-.158.25-.149.257-.139.262-.13.268-.12.273-.109.279-.099.283-.088.288-.077.292-.066.297-.055.301-.043.304-.031.308-.019.311-.006h535.531l.311.006z" id="al"/></defs><use xmlns:xlink="http://www.w3.org/1999/xlink" xlink:href="#al" fill="#307abe"/><defs><path d="M852.067 1216.712c-4.277 0-7.749 3.472-7.749 7.749 0 4.277 3.472 7.749 7.749 7.749h50.539c4.277 0 7.749-3.472 7.749-7.749 0-4.277-3.472-7.749-7.749-7.749z" id="am"/></defs><use xmlns:xlink="http://www.w3.org/1999/xlink" xlink:href="#am" fill="#307abe"/><defs><path d="M768.942 1216.712c-4.277 0-7.749 3.472-7.749 7.749 0 4.277 3.472 7.749 7.749 7.749h50.539c4.277 0 7.749-3.472 7.749-7.749 0-4.277-3.472-7.749-7.749-7.749z" id="an"/></defs><use xmlns:xlink="http://www.w3.org/1999/xlink" xlink:href="#an" fill="#307abe"/><defs><path d="M821.82 975.358c1.615 2.475 1.67 2.436-2.058 7.485l-2.794 3.555c-3.941 4.958-3.941 4.958-10.274 5.011l-64.05.053c-6.176-.107-6.247-.108-4.049-4.955l5.544-3.896c4.365-4.792 4.358-4.793 10.665-4.74z" id="ao"/></defs><use xmlns:xlink="http://www.w3.org/1999/xlink" xlink:href="#ao" fill="#307abe"/><use xmlns:xlink="http://www.w3.org/1999/xlink" xlink:href="#ao" stroke="#307abe" stroke-width="3" fill="none"/><defs><path d="M789.02 1030.635c1.729 2.538 1.745 2.472-2.275 7.509l-6.737 8.843c-3.878 4.956-3.885 4.958-10.144 4.958h-70.406c-6.672 0-6.717-.001-4.528-4.567l10.843-9.555c4.113-4.649 4.085-4.65 10.586-4.65z" id="ap"/></defs><use xmlns:xlink="http://www.w3.org/1999/xlink" xlink:href="#ap" fill="#307abe"/><use xmlns:xlink="http://www.w3.org/1999/xlink" xlink:href="#ap" stroke="#307abe" stroke-width="3" fill="none"/><defs><path d="M928.743 1030.685c1.323 2.488 1.406 2.422-.745 7.112l-4.721 9.511c-2.506 4.636-2.512 4.637-7.502 4.637l-102.305-.053c-5.155.053-5.133.052-3.291-4.724l8.442-9.758c3.045-4.235 3.017-4.236 8.263-4.236z" id="aq"/></defs><use xmlns:xlink="http://www.w3.org/1999/xlink" xlink:href="#aq" fill="#307abe"/><use xmlns:xlink="http://www.w3.org/1999/xlink" xlink:href="#aq" stroke="#307abe" stroke-width="3" fill="none"/><defs><path d="M679.174 1030.732c2.03 2.441 2.045 2.442-3.372 8.374l-6.462 6.854c-5.734 5.985-5.741 5.986-13.693 5.986h-71.011c-8.286 0-8.33-.001-5.755-4.617l12.499-8.756c5.769-5.397 5.741-5.398 14.165-5.398z" id="ar"/></defs><use xmlns:xlink="http://www.w3.org/1999/xlink" xlink:href="#ar" fill="#307abe"/><use xmlns:xlink="http://www.w3.org/1999/xlink" xlink:href="#ar" stroke="#307abe" stroke-width="3" fill="none"/><defs><path d="M565.269 1030.616c2.478 2.557 2.506 2.611-4.579 8.863l-7.134 6.106c-7.325 6.36-7.325 6.36-17.055 6.36h-59.341c-9.872.053-9.97.052-7.006-4.592l13.337-8.141c7.425-5.985 7.378-6.039 17.257-6.039z" id="as"/></defs><use xmlns:xlink="http://www.w3.org/1999/xlink" xlink:href="#as" fill="#307abe"/><use xmlns:xlink="http://www.w3.org/1999/xlink" xlink:href="#as" stroke="#307abe" stroke-width="3" fill="none"/><defs><path d="M1935.148 1030.675c-2.422 2.498-2.451 2.553 4.635 8.804l7.134 6.106c7.325 6.36 7.325 6.36 17.055 6.36h59.341c9.872.053 9.97.052 6.971-4.667l-13.301-8.065c-7.425-5.985-7.378-6.039-17.257-6.039z" id="at"/></defs><use xmlns:xlink="http://www.w3.org/1999/xlink" xlink:href="#at" fill="#307abe"/><use xmlns:xlink="http://www.w3.org/1999/xlink" xlink:href="#at" stroke="#307abe" stroke-width="3" fill="none"/><defs><path d="M1821.296 1030.735c-2.026 2.438-2.042 2.439 3.375 8.37l6.462 6.854c5.734 5.985 5.741 5.986 13.693 5.986h71.011c8.286 0 8.33-.001 5.648-4.788l-12.393-8.586c-5.769-5.397-5.741-5.398-14.165-5.398z" id="au"/></defs><use xmlns:xlink="http://www.w3.org/1999/xlink" xlink:href="#au" fill="#307abe"/><use xmlns:xlink="http://www.w3.org/1999/xlink" xlink:href="#au" stroke="#307abe" stroke-width="3" fill="none"/><defs><path d="M1711.493 1030.56c-1.77 2.613-1.785 2.548 2.235 7.584l6.737 8.843c3.878 4.956 3.885 4.958 10.144 4.958h70.406c6.672 0 6.717-.001 4.509-4.677l-10.824-9.444c-4.113-4.649-4.085-4.65-10.586-4.65z" id="av"/></defs><use xmlns:xlink="http://www.w3.org/1999/xlink" xlink:href="#av" fill="#307abe"/><use xmlns:xlink="http://www.w3.org/1999/xlink" xlink:href="#av" stroke="#307abe" stroke-width="3" fill="none"/><defs><path d="M1571.723 1030.702c-1.317 2.471-1.399 2.405.751 7.094l4.721 9.511c2.506 4.636 2.512 4.637 7.502 4.637l102.305-.053c5.155.053 5.133.052 3.291-4.791l-8.442-9.691c-3.045-4.235-3.017-4.236-8.263-4.236z" id="aw"/></defs><use xmlns:xlink="http://www.w3.org/1999/xlink" xlink:href="#aw" fill="#307abe"/><use xmlns:xlink="http://www.w3.org/1999/xlink" xlink:href="#aw" stroke="#307abe" stroke-width="3" fill="none"/><defs><path d="M558.393 1028.9c9.354 0 9.382.055 2.297 6.306l-7.134 6.106c-7.325 6.36-7.325 6.36-17.055 6.36h-59.341c-9.872.053-9.97.052-2.049-6.093l8.379-6.64c7.425-5.985 7.378-6.039 17.257-6.039z" id="ax"/></defs><use xmlns:xlink="http://www.w3.org/1999/xlink" xlink:href="#ax" fill="#fff"/><use xmlns:xlink="http://www.w3.org/1999/xlink" xlink:href="#ax" stroke="#307abe" fill="none"/><defs><path d="M673.364 1028.9c7.839 0 7.855.001 2.438 5.932l-6.462 6.854c-5.734 5.985-5.741 5.986-13.693 5.986h-71.011c-8.286 0-8.33-.001-2.064-5.452l8.809-7.922c5.769-5.397 5.741-5.398 14.165-5.398z" id="ay"/></defs><use xmlns:xlink="http://www.w3.org/1999/xlink" xlink:href="#ay" fill="#fff"/><use xmlns:xlink="http://www.w3.org/1999/xlink" xlink:href="#ay" stroke="#307abe" fill="none"/><defs><path d="M784.272 1028.846c6.477.053 6.493-.012 2.473 5.024l-6.737 8.843c-3.878 4.956-3.885 4.958-10.144 4.958h-70.406c-6.672 0-6.717-.001-2.219-4.677l8.534-9.444c4.113-4.649 4.085-4.65 10.586-4.65z" id="az"/></defs><use xmlns:xlink="http://www.w3.org/1999/xlink" xlink:href="#az" fill="#fff"/><use xmlns:xlink="http://www.w3.org/1999/xlink" xlink:href="#az" stroke="#307abe" fill="none"/><defs><path d="M925.066 1028.846c5 .053 5.082-.012 2.932 4.677l-4.721 9.511c-2.506 4.636-2.512 4.637-7.502 4.637l-102.305-.053c-5.155.053-5.133.052-2.265-4.09l7.416-10.392c3.045-4.235 3.017-4.236 8.263-4.236z" id="aA"/></defs><use xmlns:xlink="http://www.w3.org/1999/xlink" xlink:href="#aA" fill="#fff"/><use xmlns:xlink="http://www.w3.org/1999/xlink" xlink:href="#aA" stroke="#307abe" fill="none"/><defs><path d="M1575.407 1028.846c-5 .053-5.082-.012-2.932 4.677l4.721 9.511c2.506 4.636 2.512 4.637 7.502 4.637l102.305-.053c5.155.053 5.133.052 2.265-4.09l-7.416-10.392c-3.045-4.235-3.017-4.236-8.263-4.236z" id="aB"/></defs><use xmlns:xlink="http://www.w3.org/1999/xlink" xlink:href="#aB" fill="#fff"/><use xmlns:xlink="http://www.w3.org/1999/xlink" xlink:href="#aB" stroke="#307abe" fill="none"/><defs><path d="M1716.201 1028.822c-6.477.053-6.493-.012-2.473 5.024l6.737 8.843c3.878 4.956 3.885 4.958 10.144 4.958h70.406c6.672 0 6.717-.001 2.219-4.677l-8.534-9.444c-4.113-4.649-4.085-4.65-10.586-4.65z" id="aC"/></defs><use xmlns:xlink="http://www.w3.org/1999/xlink" xlink:href="#aC" fill="#fff"/><use xmlns:xlink="http://www.w3.org/1999/xlink" xlink:href="#aC" stroke="#307abe" fill="none"/><defs><path d="M1942.08 1028.9c-9.354 0-9.382.055-2.297 6.306l7.134 6.106c7.325 6.36 7.325 6.36 17.055 6.36h59.341c9.872.053 9.97.052 2.049-6.093l-8.379-6.64c-7.425-5.985-7.378-6.039-17.257-6.039z" id="aD"/></defs><use xmlns:xlink="http://www.w3.org/1999/xlink" xlink:href="#aD" fill="#fff"/><use xmlns:xlink="http://www.w3.org/1999/xlink" xlink:href="#aD" stroke="#307abe" fill="none"/><defs><path d="M753.056 1001.48c2.088 2.455 1.983 2.469-3.059 8.641l-2.794 3.288c-5.348 6.133-5.348 6.133-13.517 6.133h-225.214c-8.312.053-8.277.052-5.659-4.554l10.68-5.899c6.288-5.059 6.335-5.114 14.545-5.114z" id="aE"/></defs><use xmlns:xlink="http://www.w3.org/1999/xlink" xlink:href="#aE" fill="#307abe"/><use xmlns:xlink="http://www.w3.org/1999/xlink" xlink:href="#aE" stroke="#307abe" stroke-width="3" fill="none"/><defs><path d="M1074.415 1001.46c.996 2.474.998 2.488.318 5.865l-2.064 8.986c-.826 3.23-.772 3.23-4.205 3.284h-74.848c-3.535-.089-3.445-.001-2.027-4.878l3.532-7.658c1.195-3.065 1.153-3.084 4.592-3.084z" id="aF"/></defs><use xmlns:xlink="http://www.w3.org/1999/xlink" xlink:href="#aF" fill="#307abe"/><use xmlns:xlink="http://www.w3.org/1999/xlink" xlink:href="#aF" stroke="#307abe" stroke-width="3" fill="none"/><defs><path d="M1181.757 1001.831c.763 2.157.818 2.118.726 5.601l-.355 8.719c-.131 3.337-.131 3.337-3.457 3.444h-74.426c-3.315-.036-3.297-.001-2.38-5.136l1.327-7.187c.608-3.279.566-3.298 4.004-3.298z" id="aG"/></defs><use xmlns:xlink="http://www.w3.org/1999/xlink" xlink:href="#aG" fill="#307abe"/><use xmlns:xlink="http://www.w3.org/1999/xlink" xlink:href="#aG" stroke="#307abe" stroke-width="3" fill="none"/><defs><path d="M1286.992 1003.894c3.478.093 3.4.055 3.441 3.391l-.088 8.919c-.131 3.284-.131 3.284-3.497 3.324l-72.399.067c-3.432-.036-3.481-.135-3.444-3.279l-.089-9.043c-.016-3.279-.008-3.298 3.323-3.298z" id="aH"/></defs><use xmlns:xlink="http://www.w3.org/1999/xlink" xlink:href="#aH" fill="#307abe"/><use xmlns:xlink="http://www.w3.org/1999/xlink" xlink:href="#aH" stroke="#307abe" stroke-width="3" fill="none"/><defs><path d="M1319.611 1001.78c-.796 2.208-.852 2.169-.759 5.652l.355 8.719c.131 3.337.131 3.337 3.457 3.444h74.426c3.315-.036 3.297-.001 2.28-5.503l-1.227-6.82c-.608-3.279-.566-3.298-4.004-3.298z" id="aI"/></defs><use xmlns:xlink="http://www.w3.org/1999/xlink" xlink:href="#aI" fill="#307abe"/><use xmlns:xlink="http://www.w3.org/1999/xlink" xlink:href="#aI" stroke="#307abe" stroke-width="3" fill="none"/><defs><path d="M1426.845 1001.644c-.946 2.29-.948 2.305-.268 5.681l2.064 8.986c.826 3.23.772 3.23 4.205 3.284h74.848c3.535-.089 3.445-.001 1.927-5.362l-3.432-7.174c-1.195-3.065-1.153-3.084-4.592-3.084z" id="aJ"/></defs><use xmlns:xlink="http://www.w3.org/1999/xlink" xlink:href="#aJ" fill="#307abe"/><use xmlns:xlink="http://www.w3.org/1999/xlink" xlink:href="#aJ" stroke="#307abe" stroke-width="3" fill="none"/><defs><path d="M1534.283 1001.68c-1.257 2.254-1.259 2.269.757 7.087l2.705 6.048c2.215 4.779 2.215 4.779 7.356 4.726h70.04c5.084-.036 5.101.052 3.282-5.005l-4.734-6.089c-2.584-4.507-2.542-4.473-7.85-4.473z" id="aK"/></defs><use xmlns:xlink="http://www.w3.org/1999/xlink" xlink:href="#aK" fill="#307abe"/><use xmlns:xlink="http://www.w3.org/1999/xlink" xlink:href="#aK" stroke="#307abe" stroke-width="3" fill="none"/><defs><path d="M1748.178 1001.463c-2.088 2.471-1.983 2.486 3.059 8.658l2.794 3.288c5.348 6.133 5.348 6.133 13.517 6.133h225.214c8.312.053 8.277.052 5.681-4.488l-10.702-5.965c-6.288-5.059-6.335-5.114-14.545-5.114z" id="aL"/></defs><use xmlns:xlink="http://www.w3.org/1999/xlink" xlink:href="#aL" fill="#307abe"/><use xmlns:xlink="http://www.w3.org/1999/xlink" xlink:href="#aL" stroke="#307abe" stroke-width="3" fill="none"/><defs><path d="M1641.202 1001.664c-1.551 2.271-1.446 2.285 1.852 7.584l3.239 4.98c3.443 5.314 3.443 5.314 9.867 5.314h67.502c6.532-.036 6.496.052 4.324-4.822l-6.603-5.738c-4.133-5.041-4.091-5.007-10.467-5.007z" id="aM"/></defs><use xmlns:xlink="http://www.w3.org/1999/xlink" xlink:href="#aM" fill="#307abe"/><use xmlns:xlink="http://www.w3.org/1999/xlink" xlink:href="#aM" stroke="#307abe" stroke-width="3" fill="none"/><defs><path d="M1754.055 999.728c-7.965-.067-7.86-.052-2.818 6.119l2.794 3.288c5.348 6.133 5.348 6.133 13.517 6.133h225.214c8.312.053 8.277.052 1.891-4.971l-6.912-5.482c-6.288-5.059-6.335-5.114-14.545-5.114z" id="aN"/></defs><use xmlns:xlink="http://www.w3.org/1999/xlink" xlink:href="#aN" fill="#fff"/><use xmlns:xlink="http://www.w3.org/1999/xlink" xlink:href="#aN" stroke="#307abe" fill="none"/><defs><path d="M1645.693 999.728c-6.042-.067-5.937-.052-2.64 5.247l3.239 4.98c3.443 5.314 3.443 5.314 9.867 5.314h67.502c6.532-.036 6.496.052 2.336-4.989l-4.615-5.571c-4.133-5.041-4.091-5.007-10.467-5.007z" id="aO"/></defs><use xmlns:xlink="http://www.w3.org/1999/xlink" xlink:href="#aO" fill="#fff"/><use xmlns:xlink="http://www.w3.org/1999/xlink" xlink:href="#aO" stroke="#307abe" fill="none"/><defs><path d="M1538.106 999.728c-5.081-.067-5.082-.052-3.067 4.766l2.705 6.048c2.215 4.779 2.215 4.779 7.356 4.726h70.04c5.084-.036 5.101.052 2.496-4.455l-3.948-6.639c-2.584-4.507-2.542-4.473-7.85-4.473z" id="aP"/></defs><use xmlns:xlink="http://www.w3.org/1999/xlink" xlink:href="#aP" fill="#fff"/><use xmlns:xlink="http://www.w3.org/1999/xlink" xlink:href="#aP" stroke="#307abe" fill="none"/><defs><path d="M1429.216 999.674c-3.318-.013-3.32.001-2.64 3.377l2.064 8.986c.826 3.23.772 3.23 4.205 3.284h74.848c3.535-.089 3.445-.001 2.176-3.226l-3.681-9.31c-1.195-3.065-1.153-3.084-4.592-3.084z" id="aQ"/></defs><use xmlns:xlink="http://www.w3.org/1999/xlink" xlink:href="#aQ" fill="#fff"/><use xmlns:xlink="http://www.w3.org/1999/xlink" xlink:href="#aQ" stroke="#307abe" fill="none"/><defs><path d="M1322.133 999.728c-3.318-.013-3.373-.052-3.281 3.431l.355 8.719c.131 3.337.131 3.337 3.457 3.444h74.426c3.315-.036 3.297-.001 2.763-3.333l-1.71-8.99c-.608-3.279-.566-3.298-4.004-3.298z" id="aR"/></defs><use xmlns:xlink="http://www.w3.org/1999/xlink" xlink:href="#aR" fill="#fff"/><use xmlns:xlink="http://www.w3.org/1999/xlink" xlink:href="#aR" stroke="#307abe" fill="none"/><defs><path d="M1286.992 999.621c3.478.093 3.4.055 3.441 3.391l-.088 8.919c-.131 3.284-.131 3.284-3.497 3.324l-72.399.067c-3.432-.036-3.481-.135-3.444-3.279l-.089-9.043c.034-3.279-.008-3.298 3.323-3.298z" id="aS"/></defs><use xmlns:xlink="http://www.w3.org/1999/xlink" xlink:href="#aS" fill="#fff"/><use xmlns:xlink="http://www.w3.org/1999/xlink" xlink:href="#aS" stroke="#307abe" fill="none"/><defs><path d="M1072.094 999.674c3.318-.013 3.32.001 2.64 3.377l-2.064 8.986c-.826 3.23-.772 3.23-4.205 3.284h-74.848c-3.535-.089-3.445-.001-2.176-3.226l3.681-9.31c1.195-3.065 1.153-3.084 4.592-3.084z" id="aT"/></defs><use xmlns:xlink="http://www.w3.org/1999/xlink" xlink:href="#aT" fill="#fff"/><use xmlns:xlink="http://www.w3.org/1999/xlink" xlink:href="#aT" stroke="#307abe" fill="none"/><defs><path d="M859.891 1001.463c1.668 2.471 1.563 2.486-1.735 7.785l-3.239 4.98c-3.443 5.314-3.443 5.314-9.867 5.314h-67.502c-6.532-.036-6.496.052-4.341-4.872l6.619-5.688c4.133-5.041 4.091-5.007 10.467-5.007z" id="aU"/></defs><use xmlns:xlink="http://www.w3.org/1999/xlink" xlink:href="#aU" fill="#307abe"/><use xmlns:xlink="http://www.w3.org/1999/xlink" xlink:href="#aU" stroke="#307abe" stroke-width="3" fill="none"/><defs><path d="M747.179 999.728c7.965-.067 7.86-.052 2.818 6.119l-2.794 3.288c-5.348 6.133-5.348 6.133-13.517 6.133h-225.214c-8.312.053-8.277.052-1.891-4.971l6.912-5.482c6.288-5.059 6.335-5.114 14.545-5.114z" id="aV"/></defs><use xmlns:xlink="http://www.w3.org/1999/xlink" xlink:href="#aV" fill="#fff"/><use xmlns:xlink="http://www.w3.org/1999/xlink" xlink:href="#aV" stroke="#307abe" fill="none"/><defs><path d="M719.442 975.389c2.022 2.478 2.023 2.439-3.339 8.29l-1.726 1.846c-5.669 5.866-5.669 5.866-13.677 5.919h-164.839c-8.152-.053-8.116-.055-5.591-4.548l8.101-3.929c6.448-5.059 6.495-5.114 14.672-5.114z" id="aW"/></defs><use xmlns:xlink="http://www.w3.org/1999/xlink" xlink:href="#aW" fill="#307abe"/><use xmlns:xlink="http://www.w3.org/1999/xlink" xlink:href="#aW" stroke="#307abe" stroke-width="3" fill="none"/><defs><path d="M925.232 975.442c1.348 2.391 1.35 2.405-1.043 6.921l-2.474 4.517c-2.445 4.477-2.445 4.477-7.657 4.53h-66.368c-5.268-.053-5.285-.055-3.501-4.534l4.858-4.744c3.083-4.311 3.076-4.313 8.262-4.313z" id="aX"/></defs><use xmlns:xlink="http://www.w3.org/1999/xlink" xlink:href="#aX" fill="#307abe"/><use xmlns:xlink="http://www.w3.org/1999/xlink" xlink:href="#aX" stroke="#307abe" stroke-width="3" fill="none"/><defs><path d="M1027.297 975.292c1.037 2.541 1.093 2.555.035 5.629l-2.474 7.241c-1.163 3.195-1.163 3.195-4.505 3.302l-71.016-.053c-3.345-.053-3.362-.055-1.879-4.817l3.61-5.69c1.587-3.029 1.581-3.031 4.95-3.031z" id="aY"/></defs><use xmlns:xlink="http://www.w3.org/1999/xlink" xlink:href="#aY" fill="#307abe"/><use xmlns:xlink="http://www.w3.org/1999/xlink" xlink:href="#aY" stroke="#307abe" stroke-width="3" fill="none"/><defs><path d="M1130.256 975.673c.851 2.16.852 2.228.489 5.568l-.978 6.814c-.415 3.355-.415 3.355-3.918 3.355h-70.001c-3.291-.053-3.309-.055-2.046-5.081l1.68-5.318c.866-3.07.86-3.137 4.322-3.137z" id="aZ"/></defs><use xmlns:xlink="http://www.w3.org/1999/xlink" xlink:href="#aZ" fill="#307abe"/><use xmlns:xlink="http://www.w3.org/1999/xlink" xlink:href="#aZ" stroke="#307abe" stroke-width="3" fill="none"/><defs><path d="M1230.266 977.792c3.249.04 3.25.001 3.368 3.395l.09 6.92c-.095 3.302-.095 3.302-3.49 3.355h-69.36c-3.451-.107-3.469-.108-3.106-5.345l.444-4.895c.225-3.283.219-3.351 3.574-3.351z" id="ba"/></defs><use xmlns:xlink="http://www.w3.org/1999/xlink" xlink:href="#ba" fill="#307abe"/><use xmlns:xlink="http://www.w3.org/1999/xlink" xlink:href="#ba" stroke="#307abe" stroke-width="3" fill="none"/><defs><path d="M1271.045 977.792c-3.249.04-3.25.001-3.368 3.395l-.09 6.92c.095 3.302.095 3.302 3.49 3.355h69.36c3.451-.107 3.469-.108 3.006-6.079l-.344-4.16c-.225-3.283-.219-3.351-3.574-3.351z" id="bb"/></defs><use xmlns:xlink="http://www.w3.org/1999/xlink" xlink:href="#bb" fill="#307abe"/><use xmlns:xlink="http://www.w3.org/1999/xlink" xlink:href="#bb" stroke="#307abe" stroke-width="3" fill="none"/><defs><path d="M1371.098 975.642c-.867 2.244-.869 2.312-.506 5.652l.978 6.814c.415 3.355.415 3.355 3.918 3.355h70.001c3.291-.053 3.309-.055 2.046-5.098l-1.68-5.301c-.866-3.07-.86-3.137-4.322-3.137z" id="bc"/></defs><use xmlns:xlink="http://www.w3.org/1999/xlink" xlink:href="#bc" fill="#307abe"/><use xmlns:xlink="http://www.w3.org/1999/xlink" xlink:href="#bc" stroke="#307abe" stroke-width="3" fill="none"/><defs><path d="M1473.968 975.292c-1.037 2.541-1.093 2.555-.035 5.629l2.474 7.241c1.163 3.195 1.163 3.195 4.505 3.302l71.016-.053c3.345-.053 3.362-.055 1.929-4.717l-3.66-5.789c-1.587-3.029-1.581-3.031-4.95-3.031z" id="bd"/></defs><use xmlns:xlink="http://www.w3.org/1999/xlink" xlink:href="#bd" fill="#307abe"/><use xmlns:xlink="http://www.w3.org/1999/xlink" xlink:href="#bd" stroke="#307abe" stroke-width="3" fill="none"/><defs><path d="M1575.997 975.492c-1.331 2.341-1.333 2.355 1.06 6.871l2.474 4.517c2.445 4.477 2.445 4.477 7.657 4.53h66.368c5.268-.053 5.285-.055 3.501-4.5l-4.858-4.777c-3.083-4.311-3.076-4.313-8.262-4.313z" id="be"/></defs><use xmlns:xlink="http://www.w3.org/1999/xlink" xlink:href="#be" fill="#307abe"/><use xmlns:xlink="http://www.w3.org/1999/xlink" xlink:href="#be" stroke="#307abe" stroke-width="3" fill="none"/><defs><path d="M1679.53 975.462c-1.598 2.424-1.654 2.385 2.075 7.435l2.794 3.555c3.941 4.958 3.941 4.958 10.274 5.011l64.05.053c6.176-.107 6.247-.108 4.232-4.571l-5.728-4.28c-4.365-4.792-4.358-4.793-10.665-4.74z" id="bf"/></defs><use xmlns:xlink="http://www.w3.org/1999/xlink" xlink:href="#bf" fill="#307abe"/><use xmlns:xlink="http://www.w3.org/1999/xlink" xlink:href="#bf" stroke="#307abe" stroke-width="3" fill="none"/><defs><path d="M1781.887 975.476c-2.022 2.445-2.023 2.406 3.339 8.257l1.726 1.846c5.669 5.866 5.669 5.866 13.677 5.919h164.839c8.152-.053 8.116-.055 5.608-4.481l-8.118-3.996c-6.448-5.059-6.495-5.114-14.672-5.114z" id="bg"/></defs><use xmlns:xlink="http://www.w3.org/1999/xlink" xlink:href="#bg" fill="#307abe"/><use xmlns:xlink="http://www.w3.org/1999/xlink" xlink:href="#bg" stroke="#307abe" stroke-width="3" fill="none"/><defs><path d="M713.499 973.554c7.965.04 7.967.001 2.604 5.852l-1.726 1.846c-5.669 5.866-5.669 5.866-13.677 5.919h-164.839c-8.152-.053-8.116-.055-1.784-5.131l4.294-3.346c6.448-5.059 6.495-5.114 14.672-5.114z" id="bh"/></defs><use xmlns:xlink="http://www.w3.org/1999/xlink" xlink:href="#bh" fill="#fff"/><use xmlns:xlink="http://www.w3.org/1999/xlink" xlink:href="#bh" stroke="#307abe" fill="none"/><defs><path d="M817.195 973.573c6.24-.013 6.295-.052 2.566 4.998l-2.794 3.555c-3.941 4.958-3.941 4.958-10.274 5.011l-64.05.053c-6.176-.107-6.247-.108-2.211-4.704l3.707-4.147c4.365-4.792 4.358-4.793 10.665-4.74z" id="bi"/></defs><use xmlns:xlink="http://www.w3.org/1999/xlink" xlink:href="#bi" fill="#fff"/><use xmlns:xlink="http://www.w3.org/1999/xlink" xlink:href="#bi" stroke="#307abe" fill="none"/><defs><path d="M921.409 973.573c5.172-.013 5.173.001 2.78 4.517l-2.474 4.517c-2.445 4.477-2.445 4.477-7.657 4.53h-66.368c-5.268-.053-5.285-.055-2.265-4.116l3.622-5.162c3.083-4.311 3.076-4.313 8.262-4.313z" id="bj"/></defs><use xmlns:xlink="http://www.w3.org/1999/xlink" xlink:href="#bj" fill="#fff"/><use xmlns:xlink="http://www.w3.org/1999/xlink" xlink:href="#bj" stroke="#307abe" fill="none"/><defs><path d="M1024.926 973.573c3.409-.013 3.464.001 2.406 3.075l-2.474 7.241c-1.163 3.195-1.163 3.195-4.505 3.302l-71.016-.053c-3.345-.053-3.362-.055-1.944-3.048l3.675-7.459c1.587-3.029 1.581-3.031 4.95-3.031z" id="bk"/></defs><use xmlns:xlink="http://www.w3.org/1999/xlink" xlink:href="#bk" fill="#fff"/><use xmlns:xlink="http://www.w3.org/1999/xlink" xlink:href="#bk" stroke="#307abe" fill="none"/><defs><path d="M1127.751 973.519c3.355.04 3.357.108 2.994 3.449l-.978 6.814c-.415 3.355-.415 3.355-3.918 3.355h-70.001c-3.291-.053-3.309-.055-2.478-3.262l2.113-7.138c.866-3.07.86-3.137 4.322-3.137z" id="bl"/></defs><use xmlns:xlink="http://www.w3.org/1999/xlink" xlink:href="#bl" fill="#fff"/><use xmlns:xlink="http://www.w3.org/1999/xlink" xlink:href="#bl" stroke="#307abe" fill="none"/><defs><path d="M1230.266 973.519c3.249.04 3.25.001 3.368 3.395l.09 6.92c-.095 3.302-.095 3.302-3.49 3.355h-69.36c-3.451-.107-3.469-.108-3.173-3.475l.51-6.764c.225-3.283.219-3.351 3.574-3.351z" id="bm"/></defs><use xmlns:xlink="http://www.w3.org/1999/xlink" xlink:href="#bm" fill="#fff"/><use xmlns:xlink="http://www.w3.org/1999/xlink" xlink:href="#bm" stroke="#307abe" fill="none"/><defs><path d="M1271.045 973.519c-3.249.04-3.25.001-3.368 3.395l-.09 6.92c.095 3.302.095 3.302 3.49 3.355h69.36c3.451-.107 3.469-.108 3.173-3.475l-.51-6.764c-.225-3.283-.219-3.351-3.574-3.351z" id="bn"/></defs><use xmlns:xlink="http://www.w3.org/1999/xlink" xlink:href="#bn" fill="#fff"/><use xmlns:xlink="http://www.w3.org/1999/xlink" xlink:href="#bn" stroke="#307abe" fill="none"/><defs><path d="M1373.586 973.573c-3.355.04-3.357.108-2.994 3.449l.978 6.814c.415 3.355.415 3.355 3.918 3.355h70.001c3.291-.053 3.309-.055 2.478-3.262l-2.113-7.138c-.866-3.07-.86-3.137-4.322-3.137z" id="bo"/></defs><use xmlns:xlink="http://www.w3.org/1999/xlink" xlink:href="#bo" fill="#fff"/><use xmlns:xlink="http://www.w3.org/1999/xlink" xlink:href="#bo" stroke="#307abe" fill="none"/><defs><path d="M1476.339 973.573c-3.409-.013-3.464.001-2.406 3.075l2.474 7.241c1.163 3.195 1.163 3.195 4.505 3.302l71.016-.053c3.345-.053 3.362-.055 1.944-3.048l-3.675-7.459c-1.587-3.029-1.581-3.031-4.95-3.031z" id="bp"/></defs><use xmlns:xlink="http://www.w3.org/1999/xlink" xlink:href="#bp" fill="#fff"/><use xmlns:xlink="http://www.w3.org/1999/xlink" xlink:href="#bp" stroke="#307abe" fill="none"/><defs><path d="M1579.837 973.573c-5.172-.013-5.173.001-2.78 4.517l2.474 4.517c2.445 4.477 2.445 4.477 7.657 4.53h66.368c5.268-.053 5.285-.055 2.265-4.116l-3.622-5.162c-3.083-4.311-3.076-4.313-8.262-4.313z" id="bq"/></defs><use xmlns:xlink="http://www.w3.org/1999/xlink" xlink:href="#bq" fill="#fff"/><use xmlns:xlink="http://www.w3.org/1999/xlink" xlink:href="#bq" stroke="#307abe" fill="none"/><defs><path d="M1684.172 973.626c-6.24-.013-6.295-.052-2.566 4.998l2.794 3.555c3.941 4.958 3.941 4.958 10.274 5.011l64.05.053c6.176-.107 6.247-.108 2.211-4.704l-3.707-4.147c-4.365-4.792-4.358-4.793-10.665-4.74z" id="br"/></defs><use xmlns:xlink="http://www.w3.org/1999/xlink" xlink:href="#br" fill="#fff"/><use xmlns:xlink="http://www.w3.org/1999/xlink" xlink:href="#br" stroke="#307abe" fill="none"/><defs><path d="M1787.83 973.607c-7.965.04-7.967.001-2.604 5.852l1.726 1.846c5.669 5.866 5.669 5.866 13.677 5.919h164.839c8.152-.053 8.116-.055 1.784-5.131l-4.294-3.346c-6.448-5.059-6.495-5.114-14.672-5.114z" id="bs"/></defs><use xmlns:xlink="http://www.w3.org/1999/xlink" xlink:href="#bs" fill="#fff"/><use xmlns:xlink="http://www.w3.org/1999/xlink" xlink:href="#bs" stroke="#307abe" fill="none"/><defs><path d="M689.012 949.155c1.741 2.592 1.796 2.606-2.765 6.908l-4.237 3.876c-4.601 4.263-4.601 4.263-10.953 4.317l-110.49.073c-6.432-.126-6.396-.128-4.294-4.333l8.524-4.323c4.952-3.938 4.946-3.939 11.413-3.939z" id="bt"/></defs><use xmlns:xlink="http://www.w3.org/1999/xlink" xlink:href="#bt" fill="#307abe"/><use xmlns:xlink="http://www.w3.org/1999/xlink" xlink:href="#bt" stroke="#307abe" stroke-width="3" fill="none"/><defs><path d="M787.843 949.135c1.494 2.558 1.495 2.572-1.797 6.554l-4.023 4.624c-3.639 3.996-3.639 3.996-8.621 3.996l-64.2-.053c-5.101-.053-5.244-.055-3.265-4.405l7.33-4.552c3.617-3.564 3.61-3.565 8.956-3.565z" id="bu"/></defs><use xmlns:xlink="http://www.w3.org/1999/xlink" xlink:href="#bu" fill="#307abe"/><use xmlns:xlink="http://www.w3.org/1999/xlink" xlink:href="#bu" stroke="#307abe" stroke-width="3" fill="none"/><defs><path d="M885.788 949.319c1.354 2.375 1.355 2.389-1.296 6.744l-2.474 3.822c-2.891 4.423-2.945 4.423-8.087 4.37h-62.544c-5.101-.053-5.19-.055-3.325-4.529l5.04-3.947c3.243-4.044 3.237-4.046 8.529-4.046z" id="bv"/></defs><use xmlns:xlink="http://www.w3.org/1999/xlink" xlink:href="#bv" fill="#307abe"/><use xmlns:xlink="http://www.w3.org/1999/xlink" xlink:href="#bv" stroke="#307abe" stroke-width="3" fill="none"/><defs><path d="M985.108 949.152c1.12 2.541 1.121 2.555-.408 5.682l-2.794 6.306c-1.489 3.035-1.409 3.101-4.882 3.115l-67.205.053c-3.379-.107-3.334-.108-1.873-4.702l4.042-4.896c1.707-2.976 1.634-2.977 5.244-3.031z" id="bw"/></defs><use xmlns:xlink="http://www.w3.org/1999/xlink" xlink:href="#bw" fill="#307abe"/><use xmlns:xlink="http://www.w3.org/1999/xlink" xlink:href="#bw" stroke="#307abe" stroke-width="3" fill="none"/><defs><path d="M1083.333 949.17c.979 2.524 1.048 2.538.413 5.985l-1.352 5.772c-.821 3.315-.808 3.315-4.254 3.395l-67.645-.013c-3.165-.107-3.187-.108-1.679-5.563l2.085-3.875c1.147-3.136 1.14-3.137 4.643-3.137z" id="bx"/></defs><use xmlns:xlink="http://www.w3.org/1999/xlink" xlink:href="#bx" fill="#307abe"/><use xmlns:xlink="http://www.w3.org/1999/xlink" xlink:href="#bx" stroke="#307abe" stroke-width="3" fill="none"/><defs><path d="M1183.006 949.32c.872 2.32.888 2.281.733 5.781l-.177 5.772c-.074 3.368-.06 3.368-3.507 3.395l-67.912-.013c-3.272-.053-3.294-.055-2.336-5.347l.713-3.878c.506-3.297.499-3.298 3.948-3.298z" id="by"/></defs><use xmlns:xlink="http://www.w3.org/1999/xlink" xlink:href="#by" fill="#307abe"/><use xmlns:xlink="http://www.w3.org/1999/xlink" xlink:href="#by" stroke="#307abe" stroke-width="3" fill="none"/><defs><path d="M1287.296 951.707c3.464-.067 3.48-.106 3.432 3.342l-.07 5.719c-.02 3.475-.007 3.475-3.56 3.502l-73.04-.013c-3.432-.053-3.454-.055-3.464-3.484l-.083-5.633c.025-3.457.018-3.458 3.414-3.405z" id="bz"/></defs><use xmlns:xlink="http://www.w3.org/1999/xlink" xlink:href="#bz" fill="#307abe"/><use xmlns:xlink="http://www.w3.org/1999/xlink" xlink:href="#bz" stroke="#307abe" stroke-width="3" fill="none"/><defs><path d="M1318.216 949.488c-.822 2.152-.838 2.113-.683 5.614l.177 5.772c.074 3.368.06 3.368 3.507 3.395l67.912-.013c3.272-.053 3.294-.055 2.336-5.514l-.713-3.711c-.506-3.297-.499-3.298-3.948-3.298z" id="bA"/></defs><use xmlns:xlink="http://www.w3.org/1999/xlink" xlink:href="#bA" fill="#307abe"/><use xmlns:xlink="http://www.w3.org/1999/xlink" xlink:href="#bA" stroke="#307abe" stroke-width="3" fill="none"/><defs><path d="M1417.903 949.37c-.929 2.324-.998 2.338-.363 5.785l1.352 5.772c.821 3.315.808 3.315 4.254 3.395l67.645-.013c3.165-.107 3.187-.108 1.829-4.997l-2.235-4.442c-1.147-3.136-1.14-3.137-4.643-3.137z" id="bB"/></defs><use xmlns:xlink="http://www.w3.org/1999/xlink" xlink:href="#bB" fill="#307abe"/><use xmlns:xlink="http://www.w3.org/1999/xlink" xlink:href="#bB" stroke="#307abe" stroke-width="3" fill="none"/><defs><path d="M1516.182 949.269c-1.07 2.424-1.071 2.439.458 5.566l2.794 6.306c1.489 3.035 1.409 3.101 4.882 3.115l67.205.053c3.379-.107 3.334-.108 1.873-4.686l-4.042-4.912c-1.707-2.976-1.634-2.977-5.244-3.031z" id="bC"/></defs><use xmlns:xlink="http://www.w3.org/1999/xlink" xlink:href="#bC" fill="#307abe"/><use xmlns:xlink="http://www.w3.org/1999/xlink" xlink:href="#bC" stroke="#307abe" stroke-width="3" fill="none"/><defs><path d="M1615.57 949.169c-1.437 2.524-1.439 2.539 1.213 6.894l2.474 3.822c2.891 4.423 2.945 4.423 8.087 4.37h62.544c5.101-.053 5.19-.055 3.258-4.73l-4.973-3.747c-3.243-4.044-3.237-4.046-8.529-4.046z" id="bD"/></defs><use xmlns:xlink="http://www.w3.org/1999/xlink" xlink:href="#bD" fill="#307abe"/><use xmlns:xlink="http://www.w3.org/1999/xlink" xlink:href="#bD" stroke="#307abe" stroke-width="3" fill="none"/><defs><path d="M1713.491 949.085c-1.544 2.608-1.545 2.622 1.747 6.604l4.023 4.624c3.639 3.996 3.639 3.996 8.621 3.996l64.2-.053c5.101-.053 5.244-.055 3.281-4.389l-7.347-4.568c-3.617-3.564-3.61-3.565-8.956-3.565z" id="bE"/></defs><use xmlns:xlink="http://www.w3.org/1999/xlink" xlink:href="#bE" fill="#307abe"/><use xmlns:xlink="http://www.w3.org/1999/xlink" xlink:href="#bE" stroke="#307abe" stroke-width="3" fill="none"/><defs><path d="M1812.328 949.089c-1.774 2.658-1.83 2.673 2.732 6.975l4.237 3.876c4.601 4.263 4.601 4.263 10.953 4.317l110.49.073c6.432-.126 6.396-.128 4.294-4.267l-8.524-4.39c-4.952-3.938-4.946-3.939-11.413-3.939z" id="bF"/></defs><use xmlns:xlink="http://www.w3.org/1999/xlink" xlink:href="#bF" fill="#307abe"/><use xmlns:xlink="http://www.w3.org/1999/xlink" xlink:href="#bF" stroke="#307abe" stroke-width="3" fill="none"/><defs><path d="M1816.702 947.487c-6.149-.013-6.204.001-1.643 4.303l4.237 3.876c4.601 4.263 4.601 4.263 10.953 4.317l110.49.073c6.432-.126 6.396-.128 1.538-4.016l-5.769-4.641c-4.952-3.938-4.946-3.939-11.413-3.939z" id="bG"/></defs><use xmlns:xlink="http://www.w3.org/1999/xlink" xlink:href="#bG" fill="#fff"/><use xmlns:xlink="http://www.w3.org/1999/xlink" xlink:href="#bG" stroke="#307abe" fill="none"/><defs><path d="M1717.147 947.433c-5.2-.013-5.202.001-1.91 3.983l4.023 4.624c3.639 3.996 3.639 3.996 8.621 3.996l64.2-.053c5.101-.053 5.244-.055 1.527-3.604l-5.593-5.353c-3.617-3.564-3.61-3.565-8.956-3.565z" id="bH"/></defs><use xmlns:xlink="http://www.w3.org/1999/xlink" xlink:href="#bH" fill="#fff"/><use xmlns:xlink="http://www.w3.org/1999/xlink" xlink:href="#bH" stroke="#307abe" fill="none"/><defs><path d="M1619.227 947.433c-5.094-.013-5.095.001-2.444 4.357l2.474 3.822c2.891 4.423 2.945 4.423 8.087 4.37h62.544c5.101-.053 5.19-.055 1.955-3.978l-3.67-4.498c-3.243-4.044-3.237-4.046-8.529-4.046z" id="bI"/></defs><use xmlns:xlink="http://www.w3.org/1999/xlink" xlink:href="#bI" fill="#fff"/><use xmlns:xlink="http://www.w3.org/1999/xlink" xlink:href="#bI" stroke="#307abe" fill="none"/><defs><path d="M1518.603 947.433c-3.491-.013-3.493.001-1.963 3.128l2.794 6.306c1.489 3.035 1.409 3.101 4.882 3.115l67.205.053c3.379-.107 3.334-.108 1.754-2.95l-3.923-6.648c-1.707-2.976-1.634-2.977-5.244-3.031z" id="bJ"/></defs><use xmlns:xlink="http://www.w3.org/1999/xlink" xlink:href="#bJ" fill="#fff"/><use xmlns:xlink="http://www.w3.org/1999/xlink" xlink:href="#bJ" stroke="#307abe" fill="none"/><defs><path d="M1420.225 947.433c-3.251-.013-3.319.001-2.684 3.449l1.352 5.772c.821 3.315.808 3.315 4.254 3.395l67.645-.013c3.165-.107 3.187-.108 2.128-3.11l-2.535-6.328c-1.147-3.136-1.14-3.137-4.643-3.137z" id="bK"/></defs><use xmlns:xlink="http://www.w3.org/1999/xlink" xlink:href="#bK" fill="#fff"/><use xmlns:xlink="http://www.w3.org/1999/xlink" xlink:href="#bK" stroke="#307abe" fill="none"/><defs><path d="M1320.805 947.433c-3.411-.067-3.426-.106-3.272 3.395l.177 5.772c.074 3.368.06 3.368 3.507 3.395l67.912-.013c3.272-.053 3.294-.055 2.769-3.377l-1.146-5.847c-.506-3.297-.499-3.298-3.948-3.298z" id="bL"/></defs><use xmlns:xlink="http://www.w3.org/1999/xlink" xlink:href="#bL" fill="#fff"/><use xmlns:xlink="http://www.w3.org/1999/xlink" xlink:href="#bL" stroke="#307abe" fill="none"/><defs><path d="M1287.296 947.433c3.464-.067 3.48-.106 3.432 3.342l-.07 5.719c-.02 3.475-.007 3.475-3.56 3.502l-73.04-.013c-3.432-.053-3.454-.055-3.464-3.484l-.083-5.633c.025-3.457.018-3.458 3.414-3.405z" id="bM"/></defs><use xmlns:xlink="http://www.w3.org/1999/xlink" xlink:href="#bM" fill="#fff"/><use xmlns:xlink="http://www.w3.org/1999/xlink" xlink:href="#bM" stroke="#307abe" fill="none"/><defs><path d="M1180.468 947.433c3.411-.067 3.426-.106 3.272 3.395l-.177 5.772c-.074 3.368-.06 3.368-3.507 3.395l-67.912-.013c-3.272-.053-3.294-.055-2.769-3.377l1.146-5.847c.506-3.297.499-3.298 3.948-3.298z" id="bN"/></defs><use xmlns:xlink="http://www.w3.org/1999/xlink" xlink:href="#bN" fill="#fff"/><use xmlns:xlink="http://www.w3.org/1999/xlink" xlink:href="#bN" stroke="#307abe" fill="none"/><defs><path d="M1081.061 947.433c3.251-.013 3.319.001 2.684 3.449l-1.352 5.772c-.821 3.315-.808 3.315-4.254 3.395l-67.645-.013c-3.165-.107-3.187-.108-2.128-3.11l2.535-6.328c1.147-3.136 1.14-3.137 4.643-3.137z" id="bO"/></defs><use xmlns:xlink="http://www.w3.org/1999/xlink" xlink:href="#bO" fill="#fff"/><use xmlns:xlink="http://www.w3.org/1999/xlink" xlink:href="#bO" stroke="#307abe" fill="none"/><defs><path d="M982.736 947.433c3.491-.013 3.493.001 1.963 3.128l-2.794 6.306c-1.489 3.035-1.409 3.101-4.882 3.115l-67.205.053c-3.379-.107-3.334-.108-1.754-2.95l3.923-6.648c1.707-2.976 1.634-2.977 5.244-3.031z" id="bP"/></defs><use xmlns:xlink="http://www.w3.org/1999/xlink" xlink:href="#bP" fill="#fff"/><use xmlns:xlink="http://www.w3.org/1999/xlink" xlink:href="#bP" stroke="#307abe" fill="none"/><defs><path d="M882.048 947.433c5.094-.013 5.095.001 2.444 4.357l-2.474 3.822c-2.891 4.423-2.945 4.423-8.087 4.37h-62.544c-5.101-.053-5.19-.055-1.955-3.978l3.67-4.498c3.243-4.044 3.237-4.046 8.529-4.046z" id="bQ"/></defs><use xmlns:xlink="http://www.w3.org/1999/xlink" xlink:href="#bQ" fill="#fff"/><use xmlns:xlink="http://www.w3.org/1999/xlink" xlink:href="#bQ" stroke="#307abe" fill="none"/><defs><path d="M784.137 947.433c5.2-.013 5.202.001 1.91 3.983l-4.023 4.624c-3.639 3.996-3.639 3.996-8.621 3.996l-64.2-.053c-5.101-.053-5.244-.055-1.527-3.604l5.593-5.353c3.617-3.564 3.61-3.565 8.956-3.565z" id="bR"/></defs><use xmlns:xlink="http://www.w3.org/1999/xlink" xlink:href="#bR" fill="#fff"/><use xmlns:xlink="http://www.w3.org/1999/xlink" xlink:href="#bR" stroke="#307abe" fill="none"/><defs><path d="M684.604 947.487c6.149-.013 6.204.001 1.643 4.303l-4.237 3.876c-4.601 4.263-4.601 4.263-10.953 4.317l-110.49.073c-6.432-.126-6.396-.128-1.538-4.016l5.769-4.641c4.952-3.938 4.946-3.939 11.413-3.939z" id="bS"/></defs><use xmlns:xlink="http://www.w3.org/1999/xlink" xlink:href="#bS" fill="#fff"/><use xmlns:xlink="http://www.w3.org/1999/xlink" xlink:href="#bS" stroke="#307abe" fill="none"/><defs><path d="M855.516 999.728c6.042-.067 5.937-.052 2.64 5.247l-3.239 4.98c-3.443 5.314-3.443 5.314-9.867 5.314h-67.502c-6.532-.036-6.496.052-2.336-4.989l4.615-5.571c4.133-5.041 4.091-5.007 10.467-5.007z" id="bT"/></defs><use xmlns:xlink="http://www.w3.org/1999/xlink" xlink:href="#bT" fill="#fff"/><use xmlns:xlink="http://www.w3.org/1999/xlink" xlink:href="#bT" stroke="#307abe" fill="none"/><defs><path d="M966.929 1001.48c1.374 2.454 1.376 2.469-.64 7.287l-2.705 6.048c-2.215 4.779-2.215 4.779-7.356 4.726h-70.04c-5.084-.036-5.101.052-3.182-5.289l4.634-5.805c2.584-4.507 2.542-4.473 7.85-4.473z" id="bU"/></defs><use xmlns:xlink="http://www.w3.org/1999/xlink" xlink:href="#bU" fill="#307abe"/><use xmlns:xlink="http://www.w3.org/1999/xlink" xlink:href="#bU" stroke="#307abe" stroke-width="3" fill="none"/><defs><path d="M963.222 999.728c5.081-.067 5.082-.052 3.067 4.766l-2.705 6.048c-2.215 4.779-2.215 4.779-7.356 4.726h-70.04c-5.084-.036-5.101.052-2.496-4.455l3.948-6.639c2.584-4.507 2.542-4.473 7.85-4.473z" id="bV"/></defs><use xmlns:xlink="http://www.w3.org/1999/xlink" xlink:href="#bV" fill="#fff"/><use xmlns:xlink="http://www.w3.org/1999/xlink" xlink:href="#bV" stroke="#307abe" fill="none"/><defs><path d="M1827.109 1028.9c-7.839 0-7.855.001-2.438 5.932l6.462 6.854c5.734 5.985 5.741 5.986 13.693 5.986h71.011c8.286 0 8.33-.001 2.064-5.452l-8.809-7.922c-5.769-5.397-5.741-5.398-14.165-5.398z" id="bW"/></defs><use xmlns:xlink="http://www.w3.org/1999/xlink" xlink:href="#bW" fill="#fff"/><use xmlns:xlink="http://www.w3.org/1999/xlink" xlink:href="#bW" stroke="#307abe" fill="none"/><defs><path d="M1179.202 999.728c3.318-.013 3.373-.052 3.281 3.431l-.355 8.719c-.131 3.337-.131 3.337-3.457 3.444h-74.426c-3.315-.036-3.297-.001-2.763-3.333l1.71-8.99c.608-3.279.566-3.298 4.004-3.298z" id="bX"/></defs><use xmlns:xlink="http://www.w3.org/1999/xlink" xlink:href="#bX" fill="#fff"/><use xmlns:xlink="http://www.w3.org/1999/xlink" xlink:href="#bX" stroke="#307abe" fill="none"/><defs><path d="M1538.424 1033.173c3.325-.053 3.354-.119 4.815 3.021l5.488 10.846c1.436 4.903 1.429 4.904-1.878 4.904h-592.451c-3.339-.053-3.424-.055-1.906-4.881l5.529-10.83c1.354-3.06 1.326-3.061 4.74-3.061z" id="bY"/></defs><use xmlns:xlink="http://www.w3.org/1999/xlink" xlink:href="#bY" fill="#307abe"/><use xmlns:xlink="http://www.w3.org/1999/xlink" xlink:href="#bY" stroke="#307abe" stroke-width="3" fill="none"/><defs><path d="M1538.424 1028.9c3.325-.053 3.354-.119 4.815 3.021l5.583 12.502c1.34 3.247 1.334 3.248-1.973 3.248h-592.451c-3.339-.053-3.424-.055-1.944-3.128l5.568-12.582c1.354-3.06 1.326-3.061 4.74-3.061z" id="bZ"/></defs><use xmlns:xlink="http://www.w3.org/1999/xlink" xlink:href="#bZ" fill="#fff"/><use xmlns:xlink="http://www.w3.org/1999/xlink" xlink:href="#bZ" stroke="#307abe" fill="none"/><defs><path d="M2322.312 1123.124l.037.003.036.004.036.005.036.007.035.008.035.01.034.011.034.012.033.013.033.015.032.016.031.017.031.018.03.019.029.021.028.022.027.023.027.024.026.025.025.026.024.027.023.028.022.029.021.03.02.03.018.031.017.032.016.033.015.034.013.035.012.035.011.036.009.037.008.037.006.038.005.038.003.037.002.037v.037l-.001.037-.003.037-.004.036-.005.036-.007.036-.008.035-.01.035-.011.034-.012.034-.013.033-.015.033-.016.032-.017.031-.018.031-.019.03-.021.029-.022.028-.023.027-.024.027-.025.026-.026.025-.027.024-.028.023-.029.022-.03.021-.03.02-.031.018-.032.017-.033.016-.034.015-.035.013-.035.012-.036.011-.037.009-.037.008-64.607 12.468-.038.006-.038.005-.037.003-.037.002h-.037l-.037-.001-.037-.003-.036-.004-.036-.005-.036-.007-.035-.008-.035-.01-.034-.011-.034-.012-.033-.013-.033-.015-.032-.016-.031-.017-.031-.018-.03-.019-.029-.021-.028-.022-.027-.023-.027-.024-.026-.025-.025-.026-.024-.027-.023-.028-.022-.029-.021-.03-.02-.03-.018-.031-.017-.032-.016-.033-.015-.034-.013-.035-.012-.035-.011-.036-.009-.037-.008-.037-.006-.038-.005-.038-.003-.037-.002-.037v-.037l.001-.037.003-.037.004-.036.005-.036.007-.036.008-.035.01-.035.011-.034.012-.034.013-.033.015-.033.016-.032.017-.031.018-.031.019-.03.021-.029.022-.028.023-.027.024-.027.025-.026.026-.025.027-.024.028-.023.029-.022.03-.021.03-.02.031-.018.032-.017.033-.016.034-.015.035-.013.035-.012.036-.011.037-.009.037-.008 64.607-12.468.038-.006.038-.005.037-.003.037-.002h.037l.037.001z" id="ca"/></defs><use xmlns:xlink="http://www.w3.org/1999/xlink" xlink:href="#ca" fill="#307abe"/><defs><path d="M2334.325 1114.524l.036.003.036.004.036.006.035.007.035.008.035.01.034.011.034.012.033.014.032.015.032.016.031.017.031.018.03.019.029.021.028.022.027.023.027.024.026.025.025.026.024.027.023.028.022.029.021.03.02.031.018.032.017.032.016.033.015.034.013.035.012.036.011.036.009.037.008.037.006.037.005.037.003.037.002.037v.037l-.001.037-.003.036-.004.036-.006.036-.007.035-.008.035-.01.035-.011.034-.012.034-.014.033-.015.032-.016.032-.017.031-.018.031-.019.03-.021.029-.022.028-.023.027-.024.027-.025.026-.026.025-.027.024-.028.023-.029.022-.03.021-.031.02-.032.018-.032.017-.033.016-.034.015-.035.013-.036.012-.036.011-.037.009-14.163 3.247-.037.008-.037.006-.037.005-.037.003-.037.002h-.037l-.037-.001-.036-.003-.036-.004-.036-.006-.035-.007-.035-.008-.035-.01-.034-.011-.034-.012-.033-.014-.032-.015-.032-.016-.031-.017-.031-.018-.03-.019-.029-.021-.028-.022-.027-.023-.027-.024-.026-.025-.025-.026-.024-.027-.023-.028-.022-.029-.021-.03-.02-.031-.018-.032-.017-.032-.016-.033-.015-.034-.013-.035-.012-.036-.011-.036-.009-.037-.008-.037-.006-.037-.005-.037-.003-.037-.002-.037v-.037l.001-.037.003-.036.004-.036.006-.036.007-.035.008-.035.01-.035.011-.034.012-.034.014-.033.015-.032.016-.032.017-.031.018-.031.019-.03.021-.029.022-.028.023-.027.024-.027.025-.026.026-.025.027-.024.028-.023.029-.022.03-.021.031-.02.032-.018.032-.017.033-.016.034-.015.035-.013.036-.012.036-.011.037-.009 14.163-3.247.037-.008.037-.006.037-.005.037-.003.037-.002h.037l.037.001z" id="cb"/></defs><use xmlns:xlink="http://www.w3.org/1999/xlink" xlink:href="#cb" fill="#307abe"/>
</svg>