 <svg version="1.0" xmlns="http://www.w3.org/2000/svg" width="700.000000pt" height="409.000000pt" viewBox="0 0 700.000000 409.000000" preserveAspectRatio="xMidYMid meet">
<metadata>
Created by potrace 1.12, written by Peter Selinger 2001-2015
</metadata>
<g transform="translate(0.000000,409.000000) scale(0.100000,-0.100000)" fill="#000000" stroke="none">
<path d="M1654 3198 c-61 -20 -127 -80 -162 -148 -31 -60 -34 -71 -30 -140 2
-54 10 -89 28 -125 19 -39 214 -241 912 -945 1007 -1014 945 -960 1098 -960
153 0 91 -55 1098 960 695 701 893 906 913 945 20 41 24 65 24 135 0 76 -3 91
-30 139 -55 100 -144 151 -264 151 -123 0 -90 29 -950 -836 -429 -431 -785
-784 -791 -784 -5 0 -362 354 -792 786 -867 871 -825 835 -953 833 -38 -1 -84
-6 -101 -11z"></path>
</g>
</svg>