 <svg version="1.0" xmlns="http://www.w3.org/2000/svg" width="700.000000pt" height="449.000000pt" viewBox="0 0 700.000000 449.000000" preserveAspectRatio="xMidYMid meet">
<metadata>
Created by potrace 1.12, written by Peter Selinger 2001-2015
</metadata>
<g transform="translate(0.000000,449.000000) scale(0.100000,-0.100000)" fill="#000000" stroke="none">
<path d="M18 4469 c-25 -26 -23 -43 2 -29 25 14 46 50 28 49 -7 0 -21 -9 -30
-20z"></path>
<path d="M55 4366 c-14 -22 -16 -230 -17 -2110 0 -1736 2 -2090 13 -2107 14
-20 20 -20 1103 -20 1006 0 1090 2 1107 17 18 17 19 83 19 2115 l0 2098 -22
15 c-20 14 -141 16 -1105 16 l-1083 0 -15 -24z m2194 -10 c8 -10 10 -568 9
-2107 l-3 -2094 -1099 0 -1099 0 2 2100 c1 1629 5 2101 14 2107 7 4 496 8
1088 8 894 0 1078 -2 1088 -14z"></path>
<path d="M135 4298 c-3 -7 -4 -929 -3 -2048 l3 -2035 1025 3 1025 2 0 2043 0
2042 -1023 3 c-813 2 -1024 0 -1027 -10z m2023 -30 c9 -9 12 -469 12 -2009 0
-1688 -2 -1998 -14 -2008 -20 -16 -1972 -16 -1992 0 -12 10 -14 322 -14 2008
0 1540 3 2000 12 2009 17 17 1979 17 1996 0z"></path>
<path d="M3014 4369 c-19 -21 -19 -70 -19 -2115 0 -1944 1 -2094 17 -2110 15
-15 73 -17 677 -17 629 -1 661 0 681 18 l20 18 0 2097 c0 2019 -1 2098 -18
2113 -17 15 -78 17 -679 17 -658 0 -660 0 -679 -21z m1351 -2109 l0 -2105
-670 0 -670 0 -3 2095 c-1 1152 0 2101 3 2108 3 10 143 12 672 10 l668 -3 0
-2105z"></path>
<path d="M3095 4298 c-3 -7 -4 -928 -3 -2046 l3 -2033 605 -2 605 -2 0 2045 0
2045 -603 3 c-477 2 -604 0 -607 -10z m1183 -2032 c1 -1338 -1 -2013 -8 -2020
-7 -7 -205 -9 -573 -8 -510 2 -563 4 -574 19 -17 22 -19 3973 -3 4004 11 19
25 19 583 17 l572 -3 3 -2009z"></path>
<path d="M5117 4372 c-16 -17 -17 -179 -17 -2119 0 -1798 2 -2102 14 -2112 11
-9 236 -12 890 -13 835 -1 877 -1 896 17 20 18 20 25 20 2110 0 2091 0 2091
-20 2113 l-21 22 -873 0 c-833 0 -874 -1 -889 -18z m1771 -15 c9 -11 11 -503
10 -2108 l-3 -2094 -885 0 -885 0 -3 2095 c-1 1152 0 2100 2 2105 2 7 307 11
878 13 749 3 876 1 886 -11z"></path>
<path d="M5185 4298 c-3 -7 -4 -929 -3 -2048 l3 -2035 818 -3 817 -2 2 2035
c0 1119 1 2041 2 2048 1 18 -1632 23 -1639 5z m1613 -2032 c1 -1271 -1 -2013
-8 -2020 -12 -12 -1561 -9 -1574 4 -15 15 -21 3982 -6 4009 l11 21 787 -2 787
-3 3 -2009z"></path>
</g>
</svg>