 <svg version="1.0" xmlns="http://www.w3.org/2000/svg" width="700.000000pt" height="279.000000pt" viewBox="0 0 700.000000 279.000000" preserveAspectRatio="xMidYMid meet">
<metadata>
Created by potrace 1.12, written by Peter Selinger 2001-2015
</metadata>
<g transform="translate(0.000000,279.000000) scale(0.100000,-0.100000)" fill="#000000" stroke="none">
<path d="M2780 2424 c-100 -17 -131 -24 -155 -34 -11 -4 -36 -14 -55 -21 -55
-19 -160 -70 -166 -80 -11 -19 7 -27 34 -14 36 17 115 51 177 76 53 21 159 41
247 46 83 5 107 3 166 -16 121 -39 185 -113 198 -228 7 -69 -2 -80 -31 -37
-11 17 -20 23 -26 17 -12 -12 50 -123 68 -123 13 0 93 93 93 109 0 19 -29 12
-40 -9 -18 -34 -27 -22 -32 44 -7 85 -45 154 -112 204 -56 42 -90 55 -180 71
-71 13 -88 13 -186 -5z"></path>
<path d="M1663 2404 c-8 -21 13 -42 28 -27 13 13 5 43 -11 43 -6 0 -13 -7 -17
-16z"></path>
<path d="M1353 2383 c-3 -10 -13 -26 -22 -36 -10 -13 -12 -20 -4 -25 6 -4 14
-34 18 -67 8 -69 27 -105 55 -105 30 0 32 16 5 34 -22 14 -25 24 -25 70 0 44
4 56 22 68 l22 15 -22 12 c-12 6 -22 18 -22 26 0 22 -19 28 -27 8z"></path>
<path d="M762 2343 c-53 -10 -81 -117 -43 -164 15 -19 27 -22 71 -21 57 1 94
22 73 43 -8 8 -19 6 -41 -5 -40 -21 -55 -20 -75 2 -26 29 -22 77 9 101 30 24
54 27 72 9 9 -9 15 -9 23 -1 8 8 4 15 -12 27 -23 16 -34 17 -77 9z"></path>
<path d="M953 2340 c-45 -19 -73 -92 -53 -139 7 -19 25 -34 51 -44 35 -14 44
-14 75 -1 21 9 39 25 45 42 13 32 4 111 -14 130 -18 17 -76 24 -104 12z m76
-34 c17 -20 18 -91 2 -110 -19 -22 -74 -20 -96 4 -12 14 -15 27 -10 47 14 59
76 93 104 59z"></path>
<path d="M1197 2339 c-9 -6 -27 -9 -40 -7 -21 3 -22 0 -22 -86 0 -63 4 -91 13
-93 9 -4 12 14 12 66 l0 70 34 16 c50 24 58 14 54 -69 -2 -58 0 -71 12 -71 24
0 27 141 4 166 -19 21 -40 24 -67 8z"></path>
<path d="M1493 2343 c-7 -2 -13 -12 -13 -20 0 -12 7 -14 31 -9 34 6 59 -7 59
-30 0 -10 -7 -13 -24 -8 -28 7 -81 -18 -90 -41 -21 -55 12 -89 77 -80 29 5 47
3 52 -4 24 -39 36 85 14 148 -15 41 -64 62 -106 44z m77 -123 c0 -35 -74 -56
-86 -25 -10 24 15 45 52 45 27 0 34 -4 34 -20z"></path>
<path d="M2014 2340 c-74 -30 -69 -159 7 -190 26 -11 38 -11 73 2 42 15 58 46
21 40 -80 -14 -91 -13 -109 7 -27 30 -12 41 60 41 74 0 85 11 60 59 -25 47
-63 61 -112 41z m72 -34 c25 -19 11 -32 -43 -40 -51 -7 -62 6 -27 33 31 25 44
26 70 7z"></path>
<path d="M1677 2333 c-3 -4 -6 -46 -8 -93 -3 -70 -1 -85 11 -85 12 0 16 17 18
84 3 75 -7 118 -21 94z"></path>
<path d="M1815 2330 c-4 -6 -19 -9 -33 -8 -27 3 -27 3 -30 -73 -2 -58 1 -79
12 -89 22 -17 30 7 23 66 -4 39 -1 47 21 65 44 34 56 23 62 -56 4 -53 9 -70
20 -70 22 0 27 119 5 151 -16 25 -68 34 -80 14z"></path>
<path d="M2247 2334 c-4 -4 -17 -7 -29 -8 -21 -1 -23 -7 -29 -76 -3 -42 -1
-81 4 -88 20 -26 31 -4 32 59 l0 64 38 18 c21 9 35 22 32 27 -7 11 -38 13 -48
4z"></path>
<path d="M5060 1963 c-58 -2 -114 -7 -125 -12 -51 -23 -637 -32 -2480 -34
-1886 -3 -1931 -4 -1963 -23 -26 -15 -36 -30 -48 -74 -8 -30 -24 -77 -35 -104
-24 -62 -24 -88 1 -111 26 -23 25 -45 -3 -92 -17 -30 -22 -53 -22 -109 0 -62
3 -74 28 -103 32 -39 34 -59 6 -114 -26 -52 -49 -196 -48 -302 0 -106 24 -302
38 -319 7 -8 15 -52 18 -99 4 -65 2 -97 -12 -140 -20 -64 -15 -115 15 -142 47
-42 535 -49 1875 -27 524 9 916 11 1165 5 206 -4 394 -8 418 -7 23 0 42 -3 42
-7 0 -13 200 -20 695 -25 460 -5 575 -2 575 16 0 6 -158 7 -377 3 -385 -6
-693 2 -693 18 0 5 246 9 580 9 509 0 580 -2 580 -15 0 -13 48 -15 370 -15
334 0 404 5 358 23 -7 3 40 6 105 6 98 1 117 -1 117 -14 0 -12 13 -15 60 -15
33 0 60 4 60 10 0 6 18 10 40 10 44 0 104 26 132 57 37 41 51 95 48 183 -8
219 -5 369 8 382 14 14 16 74 3 82 -21 13 -31 152 -36 476 -4 297 -2 354 12
413 34 142 16 150 -392 166 -159 7 -315 16 -345 22 -152 25 -392 32 -770 22z
m532 -23 c39 0 68 -4 68 -10 0 -6 -110 -10 -310 -10 -194 0 -310 4 -310 10 0
11 220 19 379 13 57 -1 135 -3 173 -3z m-1825 -72 c36 -33 214 -47 478 -39
132 4 422 6 645 4 264 -2 401 0 395 6 -6 6 -57 12 -114 13 -73 2 -106 7 -109
16 -3 9 61 12 299 12 226 0 300 -3 292 -11 -7 -7 -60 -15 -120 -19 -101 -7
-103 -7 -33 -9 41 0 102 -6 135 -11 33 -6 171 -10 307 -11 205 -1 256 2 297
16 38 12 48 20 44 32 -6 14 3 15 81 9 88 -6 122 -17 142 -44 10 -14 29 -887
29 -1347 0 -192 -8 -235 -49 -257 -36 -20 -695 -26 -3376 -29 -2388 -2 -2547
-1 -2577 15 -68 36 -73 67 -66 451 4 263 7 324 20 344 12 19 14 49 9 175 -3
83 -8 171 -12 195 -5 31 -3 46 7 52 11 6 15 47 17 176 4 262 4 261 27 267 11
3 55 6 99 6 69 0 77 -2 66 -15 -15 -18 -9 -18 60 -5 38 7 56 7 60 -1 8 -13 80
-16 570 -27 465 -11 520 -8 520 28 0 19 9 20 188 23 103 2 516 3 919 2 660 -1
734 -2 750 -17z m-3267 -18 c0 -5 -5 -10 -11 -10 -5 0 -7 5 -4 10 3 6 8 10 11
10 2 0 4 -4 4 -10z m-70 -450 c0 -33 -4 -60 -10 -60 -6 0 -10 27 -10 60 0 33
4 60 10 60 6 0 10 -27 10 -60z m0 -535 c0 -124 -4 -225 -8 -225 -5 0 -12 49
-16 109 -7 123 3 341 16 341 4 0 8 -101 8 -225z m25 -635 c16 -30 9 -40 -13
-18 -12 12 -17 48 -7 48 2 0 11 -13 20 -30z"></path>
<path d="M4931 1668 c-23 -9 -41 -26 -55 -53 -21 -39 -21 -50 -19 -570 3 -587
8 -657 51 -692 50 -42 -5 -40 856 -28 529 8 515 6 542 71 21 50 21 1171 0
1211 -33 65 13 61 -696 67 -508 5 -652 4 -679 -6z m1315 -26 c5 -4 18 -18 27
-32 15 -22 17 -76 17 -600 0 -556 -1 -576 -20 -608 -11 -17 -28 -32 -37 -33
-89 -4 -956 -11 -1225 -9 -35 0 -54 6 -75 24 l-28 24 -7 274 c-24 891 -24 896
35 943 l32 25 635 0 c349 0 640 -4 646 -8z"></path>
<path d="M753 1650 c-22 -13 -35 -31 -42 -57 -5 -21 -10 -284 -11 -600 -2
-630 -5 -600 70 -642 37 -21 48 -21 581 -21 595 1 727 7 768 38 56 41 57 66
37 1134 -1 80 -5 100 -21 118 -45 50 -41 50 -717 50 -610 0 -634 -1 -665 -20z
m1295 -19 c24 -5 49 -14 55 -20 9 -9 15 -132 21 -419 14 -714 12 -777 -34
-799 -28 -13 -550 -28 -990 -28 -301 0 -329 4 -355 56 -13 24 -15 120 -15 602
0 636 -5 590 65 615 36 13 1186 6 1253 -7z"></path>
<path d="M2471 1660 c-18 -4 -45 -20 -60 -34 l-26 -26 -8 -562 c-4 -309 -4
-580 0 -602 11 -54 47 -78 131 -89 110 -14 2020 -20 2052 -7 15 6 41 25 56 41
l29 30 2 572 c1 532 0 575 -17 614 -34 78 45 73 -1102 72 -563 -1 -1038 -5
-1057 -9z m1464 -22 c72 -1 234 -1 360 1 127 2 244 -1 260 -6 17 -5 35 -20 42
-34 8 -17 14 -184 18 -589 l6 -565 -28 -33 c-22 -26 -39 -34 -83 -41 -86 -14
-1976 0 -2048 15 -12 2 -31 19 -42 37 -19 30 -20 51 -20 299 0 167 4 269 10
273 6 4 10 114 10 298 0 249 2 296 16 315 14 20 23 22 112 22 53 0 104 5 112
10 13 9 845 8 1275 -2z"></path>
<path d="M4670 1547 c0 -10 19 -13 70 -13 74 1 91 9 39 20 -54 11 -109 7 -109
-7z"></path>
<path d="M4670 1500 c0 -6 30 -10 70 -10 40 0 70 4 70 10 0 6 -30 10 -70 10
-40 0 -70 -4 -70 -10z"></path>
<path d="M6090 140 c0 -5 23 -10 50 -10 28 0 50 5 50 10 0 6 -22 10 -50 10
-27 0 -50 -4 -50 -10z"></path>
</g>
</svg>